<svg width="321" height="501" viewBox="0 0 321 501" fill="none" xmlns="http://www.w3.org/2000/svg">
<path fill-rule="evenodd" clip-rule="evenodd" d="M320.11 0.599976H0.109619V500.6H320.11V0.599976ZM255.11 30.6033H65.1096V470.597H255.11V30.6033Z" fill="#C4C4C4"/>
<path d="M97.2852 74.6249H124.568" stroke="#C4C4C4" stroke-miterlimit="10"/>
<path d="M97.2852 77.3381H108.138" stroke="#C4C4C4" stroke-miterlimit="10"/>
<path d="M97.2852 80.0513H108.138" stroke="#C4C4C4" stroke-miterlimit="10"/>
<path d="M97.2852 82.7645H108.138" stroke="#C4C4C4" stroke-miterlimit="10"/>
<path d="M97.2852 85.4777H108.138" stroke="#C4C4C4" stroke-miterlimit="10"/>
<path d="M97.2852 88.1155H118.086" stroke="#C4C4C4" stroke-miterlimit="10"/>
<path d="M97.2852 90.8287H108.138" stroke="#C4C4C4" stroke-miterlimit="10"/>
<path d="M97.2852 93.5419H108.138" stroke="#C4C4C4" stroke-miterlimit="10"/>
<path d="M97.2852 96.2551H108.138" stroke="#C4C4C4" stroke-miterlimit="10"/>
<path d="M97.2852 98.9683H108.138" stroke="#C4C4C4" stroke-miterlimit="10"/>
<path d="M97.2852 101.681H124.568" stroke="#C4C4C4" stroke-miterlimit="10"/>
<path d="M97.2852 47.6437H124.568" stroke="#C4C4C4" stroke-miterlimit="10"/>
<path d="M97.2852 50.2815H108.138" stroke="#C4C4C4" stroke-miterlimit="10"/>
<path d="M97.2852 52.9947H108.138" stroke="#C4C4C4" stroke-miterlimit="10"/>
<path d="M97.2852 55.7079H108.138" stroke="#C4C4C4" stroke-miterlimit="10"/>
<path d="M97.2852 58.4211H108.138" stroke="#C4C4C4" stroke-miterlimit="10"/>
<path d="M97.2852 61.1343H118.086" stroke="#C4C4C4" stroke-miterlimit="10"/>
<path d="M97.2852 63.8475H108.138" stroke="#C4C4C4" stroke-miterlimit="10"/>
<path d="M97.2852 66.5607H108.138" stroke="#C4C4C4" stroke-miterlimit="10"/>
<path d="M97.2852 69.1985H108.138" stroke="#C4C4C4" stroke-miterlimit="10"/>
<path d="M97.2852 71.9117H108.138" stroke="#C4C4C4" stroke-miterlimit="10"/>
<path d="M97.2852 74.6249H124.568" stroke="#C4C4C4" stroke-miterlimit="10"/>
<path d="M97.2852 101.681H124.568" stroke="#C4C4C4" stroke-miterlimit="10"/>
<path d="M97.2852 104.319H108.138" stroke="#C4C4C4" stroke-miterlimit="10"/>
<path d="M97.2852 107.033H108.138" stroke="#C4C4C4" stroke-miterlimit="10"/>
<path d="M97.2852 109.746H108.138" stroke="#C4C4C4" stroke-miterlimit="10"/>
<path d="M97.2852 112.459H108.138" stroke="#C4C4C4" stroke-miterlimit="10"/>
<path d="M97.2852 115.172H118.086" stroke="#C4C4C4" stroke-miterlimit="10"/>
<path d="M97.2852 117.885H108.138" stroke="#C4C4C4" stroke-miterlimit="10"/>
<path d="M97.2852 120.598H108.138" stroke="#C4C4C4" stroke-miterlimit="10"/>
<path d="M97.2852 123.236H108.138" stroke="#C4C4C4" stroke-miterlimit="10"/>
<path d="M97.2852 125.95H108.138" stroke="#C4C4C4" stroke-miterlimit="10"/>
<path d="M97.2852 128.663H124.568" stroke="#C4C4C4" stroke-miterlimit="10"/>
<path d="M97.2852 128.663H124.568" stroke="#C4C4C4" stroke-miterlimit="10"/>
<path d="M97.2852 131.376H108.138" stroke="#C4C4C4" stroke-miterlimit="10"/>
<path d="M97.2852 134.089H108.138" stroke="#C4C4C4" stroke-miterlimit="10"/>
<path d="M97.2852 136.802H108.138" stroke="#C4C4C4" stroke-miterlimit="10"/>
<path d="M97.2852 139.516H108.138" stroke="#C4C4C4" stroke-miterlimit="10"/>
<path d="M97.2852 142.153H118.086" stroke="#C4C4C4" stroke-miterlimit="10"/>
<path d="M97.2852 144.867H108.138" stroke="#C4C4C4" stroke-miterlimit="10"/>
<path d="M97.2852 147.58H108.138" stroke="#C4C4C4" stroke-miterlimit="10"/>
<path d="M97.2852 150.293H108.138" stroke="#C4C4C4" stroke-miterlimit="10"/>
<path d="M97.2852 153.006H108.138" stroke="#C4C4C4" stroke-miterlimit="10"/>
<path d="M97.2852 155.719H124.568" stroke="#C4C4C4" stroke-miterlimit="10"/>
<path d="M97.2852 155.719H124.568" stroke="#C4C4C4" stroke-miterlimit="10"/>
<path d="M97.2852 158.357H108.138" stroke="#C4C4C4" stroke-miterlimit="10"/>
<path d="M97.2852 161.07H108.138" stroke="#C4C4C4" stroke-miterlimit="10"/>
<path d="M97.2852 163.784H108.138" stroke="#C4C4C4" stroke-miterlimit="10"/>
<path d="M97.2852 166.497H108.138" stroke="#C4C4C4" stroke-miterlimit="10"/>
<path d="M97.2852 169.21H118.086" stroke="#C4C4C4" stroke-miterlimit="10"/>
<path d="M97.2852 171.923H108.138" stroke="#C4C4C4" stroke-miterlimit="10"/>
<path d="M97.2852 174.636H108.138" stroke="#C4C4C4" stroke-miterlimit="10"/>
<path d="M97.2852 177.274H108.138" stroke="#C4C4C4" stroke-miterlimit="10"/>
<path d="M97.2852 179.987H108.138" stroke="#C4C4C4" stroke-miterlimit="10"/>
<path d="M97.2852 182.701H124.568" stroke="#C4C4C4" stroke-miterlimit="10"/>
<path d="M97.2852 182.701H124.568" stroke="#C4C4C4" stroke-miterlimit="10"/>
<path d="M97.2852 185.414H108.138" stroke="#C4C4C4" stroke-miterlimit="10"/>
<path d="M97.2852 188.127H108.138" stroke="#C4C4C4" stroke-miterlimit="10"/>
<path d="M97.2852 190.84H108.138" stroke="#C4C4C4" stroke-miterlimit="10"/>
<path d="M97.2852 193.553H108.138" stroke="#C4C4C4" stroke-miterlimit="10"/>
<path d="M97.2852 196.191H118.086" stroke="#C4C4C4" stroke-miterlimit="10"/>
<path d="M97.2852 198.904H108.138" stroke="#C4C4C4" stroke-miterlimit="10"/>
<path d="M97.2852 201.618H108.138" stroke="#C4C4C4" stroke-miterlimit="10"/>
<path d="M97.2852 204.331H108.138" stroke="#C4C4C4" stroke-miterlimit="10"/>
<path d="M97.2852 207.044H108.138" stroke="#C4C4C4" stroke-miterlimit="10"/>
<path d="M97.2852 209.757H124.568" stroke="#C4C4C4" stroke-miterlimit="10"/>
<path d="M97.2852 209.757H124.568" stroke="#C4C4C4" stroke-miterlimit="10"/>
<path d="M97.2852 212.47H108.138" stroke="#C4C4C4" stroke-miterlimit="10"/>
<path d="M97.2852 215.108H108.138" stroke="#C4C4C4" stroke-miterlimit="10"/>
<path d="M97.2852 217.821H108.138" stroke="#C4C4C4" stroke-miterlimit="10"/>
<path d="M97.2852 220.535H108.138" stroke="#C4C4C4" stroke-miterlimit="10"/>
<path d="M97.2852 223.248H118.086" stroke="#C4C4C4" stroke-miterlimit="10"/>
<path d="M97.2852 225.961H108.138" stroke="#C4C4C4" stroke-miterlimit="10"/>
<path d="M97.2852 228.674H108.138" stroke="#C4C4C4" stroke-miterlimit="10"/>
<path d="M97.2852 231.312H108.138" stroke="#C4C4C4" stroke-miterlimit="10"/>
<path d="M97.2852 234.025H108.138" stroke="#C4C4C4" stroke-miterlimit="10"/>
<path d="M97.2852 236.738H124.568" stroke="#C4C4C4" stroke-miterlimit="10"/>
<path d="M97.2852 236.738H124.568" stroke="#C4C4C4" stroke-miterlimit="10"/>
<path d="M97.2852 239.452H108.138" stroke="#C4C4C4" stroke-miterlimit="10"/>
<path d="M97.2852 242.165H108.138" stroke="#C4C4C4" stroke-miterlimit="10"/>
<path d="M97.2852 244.878H108.138" stroke="#C4C4C4" stroke-miterlimit="10"/>
<path d="M97.2852 247.591H108.138" stroke="#C4C4C4" stroke-miterlimit="10"/>
<path d="M97.2852 250.229H118.086" stroke="#C4C4C4" stroke-miterlimit="10"/>
<path d="M97.2852 252.942H108.138" stroke="#C4C4C4" stroke-miterlimit="10"/>
<path d="M97.2852 255.655H108.138" stroke="#C4C4C4" stroke-miterlimit="10"/>
<path d="M97.2852 258.369H108.138" stroke="#C4C4C4" stroke-miterlimit="10"/>
<path d="M97.2852 261.082H108.138" stroke="#C4C4C4" stroke-miterlimit="10"/>
<path d="M97.2852 263.795H124.568" stroke="#C4C4C4" stroke-miterlimit="10"/>
<path d="M97.2852 263.795H124.568" stroke="#C4C4C4" stroke-miterlimit="10"/>
<path d="M97.2852 266.508H108.138" stroke="#C4C4C4" stroke-miterlimit="10"/>
<path d="M97.2852 269.146H108.138" stroke="#C4C4C4" stroke-miterlimit="10"/>
<path d="M97.2852 271.859H108.138" stroke="#C4C4C4" stroke-miterlimit="10"/>
<path d="M97.2852 274.572H108.138" stroke="#C4C4C4" stroke-miterlimit="10"/>
<path d="M97.2852 277.286H118.086" stroke="#C4C4C4" stroke-miterlimit="10"/>
<path d="M97.2852 279.999H108.138" stroke="#C4C4C4" stroke-miterlimit="10"/>
<path d="M97.2852 282.712H108.138" stroke="#C4C4C4" stroke-miterlimit="10"/>
<path d="M97.2852 285.425H108.138" stroke="#C4C4C4" stroke-miterlimit="10"/>
<path d="M97.2852 288.063H108.138" stroke="#C4C4C4" stroke-miterlimit="10"/>
<path d="M97.2852 290.776H124.568" stroke="#C4C4C4" stroke-miterlimit="10"/>
<path d="M97.2852 290.776H124.568" stroke="#C4C4C4" stroke-miterlimit="10"/>
<path d="M97.2852 293.489H108.138" stroke="#C4C4C4" stroke-miterlimit="10"/>
<path d="M97.2852 296.203H108.138" stroke="#C4C4C4" stroke-miterlimit="10"/>
<path d="M97.2852 298.916H108.138" stroke="#C4C4C4" stroke-miterlimit="10"/>
<path d="M97.2852 301.629H108.138" stroke="#C4C4C4" stroke-miterlimit="10"/>
<path d="M97.2852 304.267H118.086" stroke="#C4C4C4" stroke-miterlimit="10"/>
<path d="M97.2852 306.98H108.138" stroke="#C4C4C4" stroke-miterlimit="10"/>
<path d="M97.2852 309.693H108.138" stroke="#C4C4C4" stroke-miterlimit="10"/>
<path d="M97.2852 312.406H108.138" stroke="#C4C4C4" stroke-miterlimit="10"/>
<path d="M97.2852 315.12H108.138" stroke="#C4C4C4" stroke-miterlimit="10"/>
<path d="M97.2852 317.833H124.568" stroke="#C4C4C4" stroke-miterlimit="10"/>
<path d="M97.2852 317.833H124.568" stroke="#C4C4C4" stroke-miterlimit="10"/>
<path d="M97.2852 320.546H108.138" stroke="#C4C4C4" stroke-miterlimit="10"/>
<path d="M97.2852 323.184H108.138" stroke="#C4C4C4" stroke-miterlimit="10"/>
<path d="M97.2852 325.897H108.138" stroke="#C4C4C4" stroke-miterlimit="10"/>
<path d="M97.2852 328.61H108.138" stroke="#C4C4C4" stroke-miterlimit="10"/>
<path d="M97.2852 331.323H118.086" stroke="#C4C4C4" stroke-miterlimit="10"/>
<path d="M97.2852 334.037H108.138" stroke="#C4C4C4" stroke-miterlimit="10"/>
<path d="M97.2852 336.75H108.138" stroke="#C4C4C4" stroke-miterlimit="10"/>
<path d="M97.2852 339.463H108.138" stroke="#C4C4C4" stroke-miterlimit="10"/>
<path d="M108.138 342.101H97.2852" stroke="#C4C4C4" stroke-miterlimit="10"/>
<path d="M97.2852 344.814H124.568" stroke="#C4C4C4" stroke-miterlimit="10"/>
<path d="M97.2852 344.814H124.568" stroke="#C4C4C4" stroke-miterlimit="10"/>
<path d="M97.2852 347.527H108.138" stroke="#C4C4C4" stroke-miterlimit="10"/>
<path d="M97.2852 350.24H108.138" stroke="#C4C4C4" stroke-miterlimit="10"/>
<path d="M97.2852 352.954H108.138" stroke="#C4C4C4" stroke-miterlimit="10"/>
<path d="M97.2852 355.667H108.138" stroke="#C4C4C4" stroke-miterlimit="10"/>
<path d="M97.2852 358.38H118.086" stroke="#C4C4C4" stroke-miterlimit="10"/>
<path d="M97.2852 361.018H108.138" stroke="#C4C4C4" stroke-miterlimit="10"/>
<path d="M97.2852 363.731H108.138" stroke="#C4C4C4" stroke-miterlimit="10"/>
<path d="M97.2852 366.444H108.138" stroke="#C4C4C4" stroke-miterlimit="10"/>
<path d="M97.2852 369.157H108.138" stroke="#C4C4C4" stroke-miterlimit="10"/>
<path d="M97.2852 371.871H124.568" stroke="#C4C4C4" stroke-miterlimit="10"/>
<path d="M97.2852 371.871H124.568" stroke="#C4C4C4" stroke-miterlimit="10"/>
<path d="M97.2852 374.584H108.138" stroke="#C4C4C4" stroke-miterlimit="10"/>
<path d="M97.2852 377.222H108.138" stroke="#C4C4C4" stroke-miterlimit="10"/>
<path d="M97.2852 379.935H108.138" stroke="#C4C4C4" stroke-miterlimit="10"/>
<path d="M97.2852 382.648H108.138" stroke="#C4C4C4" stroke-miterlimit="10"/>
<path d="M97.2852 385.361H118.086" stroke="#C4C4C4" stroke-miterlimit="10"/>
<path d="M97.2852 388.074H108.138" stroke="#C4C4C4" stroke-miterlimit="10"/>
<path d="M97.2852 390.788H108.138" stroke="#C4C4C4" stroke-miterlimit="10"/>
<path d="M97.2852 393.501H108.138" stroke="#C4C4C4" stroke-miterlimit="10"/>
<path d="M97.2852 396.139H108.138" stroke="#C4C4C4" stroke-miterlimit="10"/>
<path d="M97.2852 398.852H124.568" stroke="#C4C4C4" stroke-miterlimit="10"/>
<path d="M97.2852 398.852H124.568" stroke="#C4C4C4" stroke-miterlimit="10"/>
<path d="M97.2852 401.565H108.138" stroke="#C4C4C4" stroke-miterlimit="10"/>
<path d="M97.2852 404.278H108.138" stroke="#C4C4C4" stroke-miterlimit="10"/>
<path d="M97.2852 406.991H108.138" stroke="#C4C4C4" stroke-miterlimit="10"/>
<path d="M97.2852 409.705H108.138" stroke="#C4C4C4" stroke-miterlimit="10"/>
<path d="M97.2852 412.418H118.086" stroke="#C4C4C4" stroke-miterlimit="10"/>
<path d="M97.2852 415.056H108.138" stroke="#C4C4C4" stroke-miterlimit="10"/>
<path d="M97.2852 417.769H108.138" stroke="#C4C4C4" stroke-miterlimit="10"/>
<path d="M97.2852 420.482H108.138" stroke="#C4C4C4" stroke-miterlimit="10"/>
<path d="M97.2852 423.195H108.138" stroke="#C4C4C4" stroke-miterlimit="10"/>
<path d="M97.2852 425.908H124.568" stroke="#C4C4C4" stroke-miterlimit="10"/>
<path d="M97.2852 425.908H124.568" stroke="#C4C4C4" stroke-miterlimit="10"/>
<path d="M97.2852 428.622H108.138" stroke="#C4C4C4" stroke-miterlimit="10"/>
<path d="M97.2852 431.335H108.138" stroke="#C4C4C4" stroke-miterlimit="10"/>
<path d="M97.2852 433.973H108.138" stroke="#C4C4C4" stroke-miterlimit="10"/>
<path d="M97.2852 436.686H108.138" stroke="#C4C4C4" stroke-miterlimit="10"/>
<path d="M97.2852 439.399H118.086" stroke="#C4C4C4" stroke-miterlimit="10"/>
<path d="M97.2852 442.112H108.138" stroke="#C4C4C4" stroke-miterlimit="10"/>
<path d="M97.2852 444.825H108.138" stroke="#C4C4C4" stroke-miterlimit="10"/>
<path d="M97.2852 447.539H108.138" stroke="#C4C4C4" stroke-miterlimit="10"/>
<path d="M97.2852 450.176H108.138" stroke="#C4C4C4" stroke-miterlimit="10"/>
<path d="M97.2852 452.89H124.568" stroke="#C4C4C4" stroke-miterlimit="10"/>
<path d="M129.014 76.4337H130.371V72.8161C130.371 72.6654 130.371 72.4393 130.371 72.2885L129.542 72.9668C129.467 73.0422 129.391 73.0422 129.316 73.0422C129.24 73.0422 129.165 73.0422 129.09 73.0422C129.014 73.0422 128.939 73.0422 128.939 72.9668C128.939 72.8915 128.939 72.8915 128.939 72.8915L128.487 72.2132L130.748 70.329H131.954V76.4337H133.16V77.5642H129.09V76.4337H129.014Z" fill="#C4C4C4"/>
<path d="M138.435 74.7756H139.189V75.6047C139.189 75.68 139.189 75.7554 139.114 75.8307C139.038 75.9061 138.963 75.9061 138.888 75.9061H138.435V77.5642H137.079V75.9061H134.215C134.139 75.9061 134.064 75.9061 133.989 75.8307C133.913 75.7554 133.838 75.68 133.838 75.6047L133.687 74.851L137.003 70.4044H138.435V74.7756ZM137.079 72.8915C137.079 72.7407 137.079 72.6654 137.079 72.5146C137.079 72.3639 137.079 72.2132 137.079 72.1378L135.195 74.7756H137.079V72.8915Z" fill="#C4C4C4"/>
<path d="M144.917 73.9466C144.917 74.5495 144.841 75.1525 144.691 75.6047C144.54 76.0569 144.389 76.4337 144.163 76.7352C143.937 77.0366 143.636 77.2627 143.334 77.4135C143.033 77.5642 142.656 77.6396 142.279 77.6396C141.902 77.6396 141.525 77.5642 141.224 77.4135C140.922 77.2627 140.621 77.0366 140.395 76.7352C140.169 76.4337 139.943 76.0569 139.867 75.6047C139.716 75.1525 139.641 74.6249 139.641 73.9466C139.641 73.3437 139.716 72.7407 139.867 72.2885C140.018 71.8363 140.169 71.4595 140.395 71.158C140.621 70.8566 140.922 70.6305 141.224 70.4797C141.525 70.329 141.902 70.2536 142.279 70.2536C142.656 70.2536 143.033 70.329 143.334 70.4797C143.636 70.6305 143.937 70.8566 144.163 71.158C144.389 71.4595 144.615 71.8363 144.691 72.2885C144.841 72.8161 144.917 73.3437 144.917 73.9466ZM143.334 73.9466C143.334 73.419 143.334 73.0422 143.259 72.7407C143.183 72.4393 143.108 72.1378 143.033 71.9871C142.957 71.8363 142.807 71.6856 142.656 71.6102C142.505 71.5349 142.354 71.5349 142.279 71.5349C142.204 71.5349 141.977 71.5349 141.902 71.6102C141.751 71.6856 141.676 71.8363 141.525 71.9871C141.375 72.1378 141.375 72.4393 141.299 72.7407C141.224 73.0422 141.224 73.4944 141.224 73.9466C141.224 74.4742 141.224 74.851 141.299 75.1525C141.375 75.4539 141.45 75.68 141.525 75.9061C141.601 76.1322 141.751 76.2076 141.902 76.283C142.053 76.3583 142.128 76.3583 142.279 76.3583C142.43 76.3583 142.58 76.3583 142.656 76.283C142.731 76.2076 142.882 76.0569 143.033 75.9061C143.108 75.7554 143.183 75.4539 143.259 75.1525C143.334 74.851 143.334 74.4742 143.334 73.9466Z" fill="#C4C4C4"/>
<path d="M129.014 49.98H130.371V46.3624C130.371 46.2117 130.371 45.9856 130.371 45.8349L129.542 46.5132C129.467 46.5885 129.391 46.5885 129.316 46.5885C129.24 46.5885 129.165 46.5885 129.09 46.5885C129.014 46.5885 128.939 46.5885 128.939 46.5132C128.939 46.4378 128.939 46.5132 128.939 46.4378L128.487 45.7595L130.748 43.8753H131.954V49.98H133.16V51.1105H129.09V49.98H129.014Z" fill="#C4C4C4"/>
<path d="M138.661 44.5536C138.661 44.629 138.661 44.7797 138.586 44.8551C138.586 44.9304 138.511 45.0058 138.435 45.0812C138.36 45.1565 138.284 45.2319 138.134 45.2319C137.983 45.2319 137.908 45.3073 137.757 45.3073H136.023L135.797 46.5131C135.948 46.5131 136.099 46.4378 136.174 46.4378C136.325 46.4378 136.4 46.4378 136.551 46.4378C136.928 46.4378 137.229 46.5131 137.531 46.5885C137.832 46.7392 138.058 46.89 138.284 47.0407C138.511 47.1914 138.661 47.4929 138.737 47.719C138.812 48.0205 138.887 48.2466 138.887 48.548C138.887 48.9249 138.812 49.3017 138.661 49.6032C138.511 49.9046 138.36 50.2061 138.058 50.4322C137.832 50.6583 137.531 50.809 137.154 50.9598C136.852 51.1105 136.476 51.1859 136.023 51.1859C135.797 51.1859 135.571 51.1859 135.345 51.1105C135.119 51.0351 134.968 50.9598 134.742 50.8844C134.591 50.809 134.365 50.7337 134.215 50.5829C134.064 50.5076 133.913 50.3568 133.762 50.2061L134.215 49.6032C134.29 49.5278 134.29 49.4524 134.365 49.4524C134.441 49.4524 134.516 49.3771 134.591 49.3771C134.667 49.3771 134.818 49.3771 134.893 49.4524C134.968 49.5278 135.044 49.6032 135.194 49.6032C135.27 49.6785 135.421 49.7539 135.571 49.7539C135.722 49.7539 135.873 49.8293 136.099 49.8293C136.325 49.8293 136.476 49.8293 136.626 49.7539C136.777 49.6785 136.852 49.6032 137.003 49.4524C137.079 49.3017 137.154 49.2263 137.229 49.0756C137.305 48.9249 137.305 48.7741 137.305 48.548C137.305 48.1712 137.229 47.9451 137.003 47.719C136.777 47.4929 136.551 47.4175 136.174 47.4175C135.873 47.4175 135.571 47.4929 135.194 47.5683L134.215 47.3422L134.968 43.9507H138.661V44.5536Z" fill="#C4C4C4"/>
<path d="M144.917 47.4929C144.917 48.0959 144.841 48.6988 144.691 49.151C144.54 49.6032 144.389 49.98 144.163 50.2815C143.937 50.5829 143.636 50.809 143.334 50.9598C143.033 51.1105 142.656 51.1859 142.279 51.1859C141.902 51.1859 141.525 51.1105 141.224 50.9598C140.922 50.809 140.621 50.5829 140.395 50.2815C140.169 49.98 139.943 49.6032 139.867 49.151C139.716 48.6988 139.641 48.1712 139.641 47.4929C139.641 46.89 139.716 46.2871 139.867 45.8349C140.018 45.3827 140.169 45.0058 140.395 44.7044C140.621 44.4029 140.922 44.1768 141.224 44.0261C141.525 43.8753 141.902 43.8 142.279 43.8C142.656 43.8 143.033 43.8753 143.334 44.0261C143.636 44.1768 143.937 44.4029 144.163 44.7044C144.389 45.0058 144.615 45.3827 144.691 45.8349C144.841 46.3624 144.917 46.89 144.917 47.4929ZM143.334 47.4929C143.334 46.9654 143.334 46.5885 143.259 46.2871C143.183 45.9856 143.108 45.6841 143.033 45.5334C142.957 45.3827 142.807 45.2319 142.656 45.1566C142.505 45.0812 142.354 45.0812 142.279 45.0812C142.204 45.0812 141.977 45.0812 141.902 45.1566C141.751 45.2319 141.676 45.3827 141.525 45.5334C141.375 45.6841 141.375 45.9856 141.299 46.2871C141.224 46.5885 141.224 47.0407 141.224 47.4929C141.224 48.0205 141.224 48.3973 141.299 48.6988C141.375 49.0003 141.45 49.2264 141.525 49.4525C141.601 49.6785 141.751 49.7539 141.902 49.8293C142.053 49.9046 142.128 49.9046 142.279 49.9046C142.43 49.9046 142.58 49.9046 142.656 49.8293C142.731 49.7539 142.882 49.6032 143.033 49.4525C143.108 49.3017 143.183 49.0003 143.259 48.6988C143.334 48.3973 143.334 48.0205 143.334 47.4929Z" fill="#C4C4C4"/>
<path d="M129.014 103.415H130.371V99.7973C130.371 99.6466 130.371 99.4205 130.371 99.2698L129.617 99.8727C129.542 99.9481 129.467 99.9481 129.391 99.9481C129.316 99.9481 129.24 99.9481 129.165 99.9481C129.09 99.9481 129.014 99.9481 129.014 99.8727C129.014 99.7973 128.939 99.8727 128.939 99.8727L128.487 99.1944L130.748 97.3102H131.954V103.415H133.16V104.545H129.09V103.415H129.014Z" fill="#C4C4C4"/>
<path d="M136.626 97.2349C137.003 97.2349 137.305 97.3102 137.606 97.3856C137.908 97.461 138.134 97.6117 138.284 97.7624C138.511 97.9132 138.586 98.1393 138.737 98.3654C138.887 98.5915 138.887 98.8176 138.887 99.0437C138.887 99.2698 138.887 99.4959 138.812 99.6466C138.737 99.7973 138.661 99.9481 138.586 100.099C138.511 100.25 138.36 100.325 138.284 100.4C138.134 100.476 137.983 100.551 137.832 100.626C138.661 100.928 139.038 101.455 139.038 102.284C139.038 102.661 138.963 102.963 138.812 103.264C138.661 103.566 138.511 103.792 138.284 103.942C138.058 104.093 137.757 104.244 137.455 104.395C137.154 104.47 136.852 104.545 136.476 104.545C136.099 104.545 135.797 104.545 135.571 104.47C135.345 104.395 135.044 104.244 134.893 104.093C134.667 103.942 134.516 103.716 134.365 103.49C134.215 103.264 134.064 102.963 133.989 102.586L134.667 102.284C134.818 102.209 135.044 102.209 135.194 102.209C135.345 102.209 135.42 102.284 135.496 102.435C135.647 102.737 135.797 102.887 135.948 103.038C136.099 103.189 136.325 103.189 136.551 103.189C136.702 103.189 136.852 103.189 137.003 103.113C137.154 103.038 137.229 102.963 137.305 102.887C137.38 102.812 137.455 102.661 137.531 102.586C137.606 102.435 137.606 102.36 137.606 102.209C137.606 102.058 137.606 101.908 137.606 101.757C137.606 101.606 137.531 101.531 137.455 101.455C137.38 101.38 137.229 101.305 137.003 101.229C136.626 101.38 136.325 101.38 135.948 101.38V100.325C136.25 100.325 136.476 100.325 136.702 100.25C136.928 100.174 137.003 100.174 137.154 100.023C137.305 99.8727 137.305 99.8727 137.38 99.722C137.38 99.5712 137.455 99.4959 137.455 99.3451C137.455 99.0437 137.38 98.8176 137.229 98.6668C137.079 98.5161 136.852 98.4407 136.626 98.4407C136.4 98.4407 136.174 98.5161 136.023 98.5915C135.873 98.6668 135.722 98.9683 135.647 99.119C135.571 99.2698 135.496 99.4205 135.345 99.4959C135.194 99.5712 135.044 99.5712 134.893 99.5712L134.064 99.4205C134.139 99.0437 134.215 98.7422 134.365 98.5161C134.516 98.29 134.667 98.0639 134.893 97.8378C135.119 97.6871 135.345 97.5363 135.647 97.461C136.023 97.3102 136.325 97.2349 136.626 97.2349Z" fill="#C4C4C4"/>
<path d="M144.917 100.928C144.917 101.531 144.841 102.134 144.691 102.586C144.54 103.038 144.389 103.415 144.163 103.716C143.937 104.018 143.636 104.244 143.334 104.395C143.033 104.545 142.656 104.621 142.279 104.621C141.902 104.621 141.525 104.545 141.224 104.395C140.922 104.244 140.621 104.018 140.395 103.716C140.169 103.415 139.943 103.038 139.867 102.586C139.716 102.134 139.641 101.606 139.641 100.928C139.641 100.325 139.716 99.722 139.867 99.2698C140.018 98.8176 140.169 98.4407 140.395 98.1393C140.621 97.8378 140.922 97.6117 141.224 97.461C141.525 97.3102 141.902 97.2349 142.279 97.2349C142.656 97.2349 143.033 97.3102 143.334 97.461C143.636 97.6117 143.937 97.8378 144.163 98.1393C144.389 98.4407 144.615 98.8176 144.691 99.2698C144.841 99.722 144.917 100.325 144.917 100.928ZM143.334 100.928C143.334 100.4 143.334 100.023 143.259 99.722C143.183 99.4205 143.108 99.119 143.033 98.9683C142.957 98.8176 142.807 98.6668 142.656 98.5915C142.505 98.5161 142.354 98.5161 142.279 98.5161C142.204 98.5161 141.977 98.5161 141.902 98.5915C141.751 98.6668 141.676 98.8176 141.525 98.9683C141.375 99.119 141.375 99.4205 141.299 99.722C141.224 100.023 141.224 100.476 141.224 100.928C141.224 101.455 141.224 101.832 141.299 102.134C141.375 102.435 141.45 102.661 141.525 102.887C141.601 103.113 141.751 103.189 141.902 103.264C142.053 103.34 142.128 103.34 142.279 103.34C142.43 103.34 142.58 103.34 142.656 103.264C142.731 103.189 142.882 103.038 143.033 102.887C143.108 102.737 143.183 102.435 143.259 102.134C143.334 101.832 143.334 101.455 143.334 100.928Z" fill="#C4C4C4"/>
<path d="M129.015 130.396H130.371V126.779C130.371 126.628 130.371 126.402 130.371 126.251L129.542 126.929C129.467 127.005 129.391 127.005 129.316 127.005C129.241 127.005 129.165 127.005 129.09 127.005C129.015 127.005 128.939 127.005 128.939 126.929C128.939 126.854 128.864 126.854 128.864 126.854L128.412 126.176L130.673 124.291H131.954V130.396H133.16V131.527H129.09V130.396H129.015Z" fill="#C4C4C4"/>
<path d="M136.551 124.216C136.928 124.216 137.229 124.291 137.531 124.367C137.832 124.442 138.058 124.593 138.284 124.819C138.511 124.97 138.661 125.196 138.737 125.497C138.812 125.723 138.887 126.025 138.887 126.326C138.887 126.552 138.887 126.854 138.812 127.08C138.737 127.306 138.661 127.532 138.511 127.683C138.36 127.909 138.209 128.06 138.058 128.286C137.908 128.512 137.681 128.663 137.531 128.889L136.099 130.321C136.25 130.245 136.476 130.245 136.626 130.17C136.777 130.17 137.003 130.095 137.154 130.095H138.511C138.661 130.095 138.812 130.17 138.887 130.245C138.963 130.321 139.038 130.472 139.038 130.622V131.527H133.989V130.999C133.989 130.924 133.989 130.773 134.064 130.698C134.139 130.622 134.139 130.472 134.29 130.396L136.4 128.286C136.551 128.135 136.702 127.909 136.852 127.758C137.003 127.608 137.079 127.457 137.154 127.306C137.229 127.155 137.305 127.005 137.38 126.854C137.455 126.703 137.455 126.552 137.455 126.326C137.455 126.025 137.38 125.799 137.229 125.648C137.079 125.497 136.852 125.422 136.626 125.422C136.4 125.422 136.174 125.497 136.023 125.573C135.873 125.723 135.722 125.874 135.722 126.025C135.647 126.176 135.571 126.326 135.42 126.402C135.27 126.477 135.119 126.477 134.968 126.477L134.139 126.326C134.215 125.95 134.29 125.648 134.441 125.422C134.591 125.12 134.742 124.97 134.968 124.744C135.194 124.593 135.42 124.442 135.722 124.367C135.948 124.216 136.25 124.216 136.551 124.216Z" fill="#C4C4C4"/>
<path d="M144.917 127.909C144.917 128.512 144.841 129.115 144.691 129.567C144.54 130.019 144.389 130.396 144.163 130.698C143.937 130.999 143.636 131.225 143.334 131.376C143.033 131.527 142.656 131.602 142.279 131.602C141.902 131.602 141.525 131.527 141.224 131.376C140.922 131.225 140.621 130.999 140.395 130.698C140.169 130.396 139.943 130.019 139.867 129.567C139.716 129.115 139.641 128.587 139.641 127.909C139.641 127.306 139.716 126.703 139.867 126.251C140.018 125.799 140.169 125.422 140.395 125.12C140.621 124.819 140.922 124.593 141.224 124.442C141.525 124.291 141.902 124.216 142.279 124.216C142.656 124.216 143.033 124.291 143.334 124.442C143.636 124.593 143.937 124.819 144.163 125.12C144.389 125.422 144.615 125.799 144.691 126.251C144.841 126.703 144.917 127.231 144.917 127.909ZM143.334 127.909C143.334 127.381 143.334 127.005 143.259 126.703C143.183 126.402 143.108 126.1 143.033 125.95C142.957 125.799 142.807 125.648 142.656 125.573C142.505 125.497 142.354 125.497 142.279 125.497C142.204 125.497 141.977 125.497 141.902 125.573C141.751 125.648 141.676 125.799 141.525 125.95C141.375 126.1 141.375 126.402 141.299 126.703C141.224 127.005 141.224 127.457 141.224 127.909C141.224 128.437 141.224 128.813 141.299 129.115C141.375 129.416 141.45 129.642 141.525 129.869C141.601 130.095 141.751 130.17 141.902 130.245C142.053 130.321 142.128 130.321 142.279 130.321C142.43 130.321 142.58 130.321 142.656 130.245C142.731 130.17 142.882 130.019 143.033 129.869C143.108 129.718 143.183 129.416 143.259 129.115C143.334 128.813 143.334 128.361 143.334 127.909Z" fill="#C4C4C4"/>
<path d="M129.015 157.302H130.371V153.684C130.371 153.534 130.371 153.308 130.371 153.157L129.542 153.835C129.467 153.911 129.391 153.911 129.316 153.911C129.241 153.911 129.165 153.911 129.09 153.911C129.015 153.911 128.939 153.911 128.939 153.835C128.939 153.76 128.864 153.76 128.864 153.76L128.412 153.081L130.673 151.197H131.954V157.302H133.16V158.433H129.09V157.302H129.015Z" fill="#C4C4C4"/>
<path d="M134.742 157.302H136.099V153.684C136.099 153.534 136.099 153.308 136.099 153.157L135.27 153.835C135.195 153.911 135.119 153.911 135.044 153.911C134.968 153.911 134.893 153.911 134.818 153.911C134.742 153.911 134.667 153.911 134.667 153.835C134.667 153.76 134.592 153.76 134.592 153.76L134.139 153.081L136.4 151.197H137.682V157.302H138.887V158.433H134.818V157.302H134.742Z" fill="#C4C4C4"/>
<path d="M144.917 154.815C144.917 155.418 144.841 156.021 144.691 156.473C144.54 156.925 144.389 157.302 144.163 157.603C143.937 157.905 143.636 158.131 143.334 158.282C143.033 158.433 142.656 158.508 142.279 158.508C141.902 158.508 141.525 158.433 141.224 158.282C140.922 158.131 140.621 157.905 140.395 157.603C140.169 157.302 139.943 156.925 139.867 156.473C139.716 156.021 139.641 155.493 139.641 154.815C139.641 154.212 139.716 153.609 139.867 153.157C140.018 152.705 140.169 152.328 140.395 152.026C140.621 151.725 140.922 151.499 141.224 151.348C141.525 151.197 141.902 151.122 142.279 151.122C142.656 151.122 143.033 151.197 143.334 151.348C143.636 151.499 143.937 151.725 144.163 152.026C144.389 152.328 144.615 152.705 144.691 153.157C144.841 153.684 144.917 154.212 144.917 154.815ZM143.334 154.815C143.334 154.287 143.334 153.911 143.259 153.609C143.183 153.308 143.108 153.006 143.033 152.855C142.957 152.705 142.807 152.554 142.656 152.479C142.505 152.403 142.354 152.403 142.279 152.403C142.204 152.403 141.977 152.403 141.902 152.479C141.751 152.554 141.676 152.705 141.525 152.855C141.375 153.006 141.375 153.308 141.299 153.609C141.224 153.911 141.224 154.363 141.224 154.815C141.224 155.342 141.224 155.719 141.299 156.021C141.375 156.322 141.45 156.548 141.525 156.774C141.601 157.001 141.751 157.076 141.902 157.151C142.053 157.227 142.128 157.227 142.279 157.227C142.43 157.227 142.58 157.227 142.656 157.151C142.731 157.076 142.882 156.925 143.033 156.774C143.108 156.624 143.183 156.322 143.259 156.021C143.334 155.719 143.334 155.342 143.334 154.815Z" fill="#C4C4C4"/>
<path d="M129.015 184.283H130.371V180.666C130.371 180.515 130.371 180.289 130.371 180.138L129.542 180.816C129.467 180.892 129.391 180.892 129.316 180.892C129.241 180.892 129.165 180.892 129.09 180.892C129.015 180.892 128.939 180.892 128.939 180.816C128.939 180.741 128.864 180.741 128.864 180.741L128.412 180.063L130.673 178.179H131.954V184.283H133.16V185.414H129.09V184.283H129.015Z" fill="#C4C4C4"/>
<path d="M139.189 181.796C139.189 182.399 139.114 183.002 138.963 183.454C138.812 183.906 138.661 184.283 138.435 184.585C138.209 184.886 137.908 185.112 137.606 185.263C137.305 185.414 136.928 185.489 136.551 185.489C136.174 185.489 135.797 185.414 135.496 185.263C135.195 185.112 134.893 184.886 134.667 184.585C134.441 184.283 134.215 183.906 134.139 183.454C133.989 183.002 133.913 182.474 133.913 181.796C133.913 181.193 133.989 180.59 134.139 180.138C134.29 179.686 134.441 179.309 134.667 179.008C134.893 178.706 135.195 178.48 135.496 178.329C135.797 178.179 136.174 178.103 136.551 178.103C136.928 178.103 137.305 178.179 137.606 178.329C137.908 178.48 138.209 178.706 138.435 179.008C138.661 179.309 138.888 179.686 138.963 180.138C139.114 180.59 139.189 181.118 139.189 181.796ZM137.606 181.796C137.606 181.269 137.606 180.892 137.531 180.59C137.456 180.289 137.38 179.987 137.305 179.837C137.229 179.686 137.079 179.535 136.928 179.46C136.777 179.384 136.627 179.384 136.551 179.384C136.4 179.384 136.25 179.384 136.174 179.46C136.024 179.535 135.948 179.686 135.797 179.837C135.722 179.987 135.647 180.289 135.571 180.59C135.496 180.892 135.496 181.344 135.496 181.796C135.496 182.324 135.496 182.701 135.571 183.002C135.647 183.303 135.722 183.53 135.797 183.756C135.873 183.906 136.024 184.057 136.174 184.133C136.325 184.208 136.4 184.208 136.551 184.208C136.702 184.208 136.853 184.208 136.928 184.133C137.079 184.057 137.154 183.906 137.305 183.756C137.456 183.605 137.456 183.303 137.531 183.002C137.531 182.701 137.606 182.248 137.606 181.796Z" fill="#C4C4C4"/>
<path d="M144.917 181.796C144.917 182.399 144.841 183.002 144.691 183.454C144.54 183.906 144.389 184.283 144.163 184.585C143.937 184.886 143.636 185.112 143.334 185.263C143.033 185.414 142.656 185.489 142.279 185.489C141.902 185.489 141.525 185.414 141.224 185.263C140.922 185.112 140.621 184.886 140.395 184.585C140.169 184.283 139.943 183.906 139.867 183.454C139.716 183.002 139.641 182.474 139.641 181.796C139.641 181.193 139.716 180.59 139.867 180.138C140.018 179.686 140.169 179.309 140.395 179.008C140.621 178.706 140.922 178.48 141.224 178.329C141.525 178.179 141.902 178.103 142.279 178.103C142.656 178.103 143.033 178.179 143.334 178.329C143.636 178.48 143.937 178.706 144.163 179.008C144.389 179.309 144.615 179.686 144.691 180.138C144.841 180.59 144.917 181.118 144.917 181.796ZM143.334 181.796C143.334 181.269 143.334 180.892 143.259 180.59C143.183 180.289 143.108 179.987 143.033 179.837C142.957 179.686 142.807 179.535 142.656 179.46C142.505 179.384 142.354 179.384 142.279 179.384C142.204 179.384 141.977 179.384 141.902 179.46C141.751 179.535 141.676 179.686 141.525 179.837C141.375 179.987 141.375 180.289 141.299 180.59C141.224 180.892 141.224 181.344 141.224 181.796C141.224 182.324 141.224 182.701 141.299 183.002C141.375 183.303 141.45 183.53 141.525 183.756C141.601 183.982 141.751 184.057 141.902 184.133C142.053 184.208 142.128 184.208 142.279 184.208C142.43 184.208 142.58 184.208 142.656 184.133C142.731 184.057 142.882 183.906 143.033 183.756C143.108 183.605 143.183 183.303 143.259 183.002C143.334 182.701 143.334 182.248 143.334 181.796Z" fill="#C4C4C4"/>
<path d="M130.974 209.606C131.049 209.531 131.049 209.531 131.125 209.456C131.2 209.38 131.2 209.38 131.276 209.305C131.125 209.38 130.974 209.456 130.823 209.456C130.673 209.531 130.447 209.531 130.296 209.531C130.07 209.531 129.844 209.456 129.617 209.38C129.391 209.305 129.165 209.154 129.015 209.003C128.788 208.853 128.638 208.627 128.562 208.325C128.487 208.024 128.412 207.722 128.412 207.421C128.412 207.119 128.487 206.818 128.562 206.516C128.713 206.215 128.864 205.989 129.09 205.763C129.316 205.537 129.542 205.386 129.919 205.235C130.22 205.084 130.597 205.009 130.974 205.009C131.351 205.009 131.728 205.084 132.029 205.16C132.331 205.311 132.557 205.461 132.783 205.687C133.009 205.913 133.16 206.14 133.235 206.441C133.31 206.742 133.386 207.044 133.386 207.421C133.386 207.873 133.31 208.325 133.16 208.702C133.009 209.079 132.858 209.456 132.557 209.757L130.974 211.943C130.899 212.018 130.823 212.094 130.673 212.169C130.522 212.244 130.371 212.244 130.22 212.244H128.788L130.974 209.606ZM131.803 207.345C131.803 207.195 131.803 207.044 131.728 206.893C131.652 206.742 131.577 206.667 131.502 206.592C131.426 206.516 131.276 206.441 131.2 206.366C131.125 206.29 130.899 206.29 130.748 206.29C130.597 206.29 130.447 206.29 130.371 206.366C130.22 206.441 130.145 206.516 130.07 206.592C129.994 206.667 129.919 206.818 129.844 206.893C129.768 207.044 129.768 207.195 129.768 207.345C129.768 208.099 130.07 208.401 130.748 208.401C131.049 208.401 131.351 208.325 131.502 208.099C131.652 207.948 131.803 207.647 131.803 207.345Z" fill="#C4C4C4"/>
<path d="M139.189 208.702C139.189 209.305 139.114 209.908 138.963 210.36C138.812 210.812 138.661 211.189 138.435 211.491C138.209 211.792 137.908 212.018 137.606 212.169C137.305 212.32 136.928 212.395 136.551 212.395C136.174 212.395 135.797 212.32 135.496 212.169C135.195 212.018 134.893 211.792 134.667 211.491C134.441 211.189 134.215 210.812 134.139 210.36C133.989 209.908 133.913 209.38 133.913 208.702C133.913 208.099 133.989 207.496 134.139 207.044C134.29 206.592 134.441 206.215 134.667 205.913C134.893 205.612 135.195 205.386 135.496 205.235C135.797 205.084 136.174 205.009 136.551 205.009C136.928 205.009 137.305 205.084 137.606 205.235C137.908 205.386 138.209 205.612 138.435 205.913C138.661 206.215 138.888 206.592 138.963 207.044C139.114 207.572 139.189 208.099 139.189 208.702ZM137.606 208.702C137.606 208.174 137.606 207.798 137.531 207.496C137.456 207.195 137.38 206.893 137.305 206.742C137.229 206.592 137.079 206.441 136.928 206.366C136.777 206.29 136.627 206.29 136.551 206.29C136.4 206.29 136.25 206.29 136.174 206.366C136.024 206.441 135.948 206.592 135.797 206.742C135.722 206.893 135.647 207.195 135.571 207.496C135.496 207.798 135.496 208.25 135.496 208.702C135.496 209.23 135.496 209.606 135.571 209.908C135.647 210.209 135.722 210.435 135.797 210.662C135.873 210.812 136.024 210.963 136.174 211.038C136.325 211.114 136.4 211.114 136.551 211.114C136.702 211.114 136.853 211.114 136.928 211.038C137.079 210.963 137.154 210.812 137.305 210.662C137.456 210.511 137.456 210.209 137.531 209.908C137.531 209.682 137.606 209.23 137.606 208.702Z" fill="#C4C4C4"/>
<path d="M130.823 239.376C130.447 239.376 130.07 239.301 129.768 239.225C129.467 239.15 129.165 238.999 128.939 238.773C128.713 238.623 128.562 238.396 128.412 238.095C128.261 237.869 128.261 237.567 128.261 237.191C128.261 236.964 128.261 236.814 128.336 236.663C128.412 236.512 128.487 236.362 128.562 236.211C128.638 236.06 128.789 235.909 128.939 235.834C129.09 235.759 129.241 235.608 129.467 235.533C129.165 235.382 128.864 235.156 128.713 234.93C128.562 234.703 128.487 234.327 128.487 233.95C128.487 233.648 128.562 233.422 128.638 233.196C128.789 232.97 128.939 232.744 129.09 232.593C129.316 232.442 129.542 232.292 129.844 232.216C130.145 232.141 130.447 232.066 130.748 232.066C131.05 232.066 131.426 232.141 131.652 232.216C131.954 232.292 132.18 232.442 132.406 232.593C132.632 232.744 132.783 232.97 132.858 233.196C133.009 233.422 133.009 233.724 133.009 233.95C133.009 234.327 132.934 234.628 132.783 234.93C132.632 235.156 132.406 235.382 132.029 235.533C132.255 235.608 132.406 235.683 132.557 235.834C132.708 235.909 132.858 236.06 132.934 236.211C133.009 236.362 133.084 236.512 133.16 236.663C133.235 236.814 133.235 237.04 133.235 237.191C133.235 237.492 133.16 237.794 133.084 238.095C132.934 238.321 132.783 238.547 132.557 238.773C132.331 238.924 132.029 239.075 131.728 239.225C131.426 239.376 131.2 239.376 130.823 239.376ZM130.823 238.246C130.974 238.246 131.125 238.246 131.276 238.17C131.426 238.095 131.502 238.02 131.577 237.944C131.652 237.869 131.728 237.718 131.728 237.643C131.803 237.492 131.803 237.417 131.803 237.266C131.803 237.115 131.803 236.964 131.728 236.814C131.728 236.663 131.652 236.588 131.577 236.512C131.502 236.437 131.426 236.362 131.276 236.286C131.125 236.211 130.974 236.211 130.823 236.211C130.673 236.211 130.447 236.211 130.371 236.286C130.221 236.362 130.145 236.437 130.07 236.512C129.994 236.588 129.919 236.738 129.919 236.814C129.919 236.964 129.844 237.115 129.844 237.266C129.844 237.417 129.844 237.567 129.919 237.643C129.919 237.793 129.994 237.869 130.07 237.944C130.145 238.02 130.221 238.095 130.371 238.17C130.447 238.17 130.597 238.246 130.823 238.246ZM130.823 235.005C130.974 235.005 131.125 235.005 131.276 234.93C131.351 234.854 131.502 234.779 131.502 234.703C131.502 234.628 131.577 234.477 131.652 234.402C131.652 234.251 131.652 234.176 131.652 234.025C131.652 233.95 131.652 233.799 131.577 233.724C131.502 233.648 131.502 233.498 131.426 233.422C131.351 233.347 131.276 233.272 131.2 233.196C131.125 233.121 130.974 233.121 130.823 233.121C130.673 233.121 130.522 233.121 130.447 233.196C130.371 233.272 130.221 233.347 130.221 233.422C130.221 233.498 130.07 233.573 130.07 233.724C130.07 233.874 129.994 233.95 129.994 234.025C129.994 234.176 129.994 234.251 129.994 234.402C129.994 234.553 130.07 234.628 130.145 234.703C130.221 234.779 130.296 234.854 130.371 234.93C130.447 235.005 130.597 235.005 130.823 235.005Z" fill="#C4C4C4"/>
<path d="M139.189 235.683C139.189 236.286 139.114 236.889 138.963 237.341C138.812 237.793 138.661 238.17 138.435 238.472C138.209 238.773 137.908 238.999 137.606 239.15C137.305 239.301 136.928 239.376 136.551 239.376C136.174 239.376 135.797 239.301 135.496 239.15C135.195 238.999 134.893 238.773 134.667 238.472C134.441 238.17 134.215 237.793 134.139 237.341C133.989 236.889 133.913 236.362 133.913 235.683C133.913 235.08 133.989 234.477 134.139 234.025C134.29 233.573 134.441 233.196 134.667 232.895C134.893 232.593 135.195 232.367 135.496 232.216C135.797 232.066 136.174 231.99 136.551 231.99C136.928 231.99 137.305 232.066 137.606 232.216C137.908 232.367 138.209 232.593 138.435 232.895C138.661 233.196 138.888 233.573 138.963 234.025C139.114 234.553 139.189 235.08 139.189 235.683ZM137.606 235.683C137.606 235.156 137.606 234.779 137.531 234.477C137.456 234.176 137.38 233.874 137.305 233.724C137.229 233.573 137.079 233.422 136.928 233.347C136.777 233.272 136.627 233.272 136.551 233.272C136.4 233.272 136.25 233.272 136.174 233.347C136.024 233.422 135.948 233.573 135.797 233.724C135.722 233.874 135.647 234.176 135.571 234.477C135.496 234.779 135.496 235.231 135.496 235.683C135.496 236.211 135.496 236.588 135.571 236.889C135.647 237.191 135.722 237.417 135.797 237.643C135.873 237.793 136.024 237.944 136.174 238.02C136.325 238.095 136.4 238.095 136.551 238.095C136.702 238.095 136.853 238.095 136.928 238.02C137.079 237.944 137.154 237.793 137.305 237.643C137.456 237.492 137.456 237.191 137.531 236.889C137.531 236.588 137.606 236.211 137.606 235.683Z" fill="#C4C4C4"/>
<path d="M133.386 259.047V259.725C133.386 259.951 133.386 260.102 133.311 260.177C133.235 260.328 133.235 260.403 133.16 260.479L130.673 265.755C130.597 265.905 130.522 265.981 130.371 266.131C130.221 266.282 130.07 266.282 129.844 266.282H128.713L131.276 261.157C131.351 261.006 131.426 260.856 131.502 260.78C131.577 260.705 131.652 260.554 131.728 260.479H128.562C128.487 260.479 128.487 260.479 128.412 260.479C128.336 260.479 128.336 260.403 128.336 260.403L128.261 260.328C128.261 260.328 128.261 260.253 128.261 260.177V259.198H133.386V259.047Z" fill="#C4C4C4"/>
<path d="M139.189 262.664C139.189 263.267 139.114 263.87 138.963 264.323C138.812 264.775 138.661 265.152 138.435 265.453C138.209 265.755 137.908 265.981 137.606 266.131C137.305 266.282 136.928 266.357 136.551 266.357C136.174 266.357 135.797 266.282 135.496 266.131C135.195 265.981 134.893 265.755 134.667 265.453C134.441 265.152 134.215 264.775 134.139 264.323C134.064 263.87 133.913 263.343 133.913 262.664C133.913 261.986 133.989 261.459 134.139 261.006C134.29 260.554 134.441 260.177 134.667 259.876C134.893 259.574 135.195 259.348 135.496 259.198C135.797 259.047 136.174 258.972 136.551 258.972C136.928 258.972 137.305 259.047 137.606 259.198C137.908 259.348 138.209 259.574 138.435 259.876C138.661 260.177 138.888 260.554 138.963 261.006C139.114 261.459 139.189 261.986 139.189 262.664ZM137.606 262.664C137.606 262.137 137.606 261.76 137.531 261.459C137.456 261.157 137.38 260.856 137.305 260.705C137.229 260.554 137.079 260.403 136.928 260.328C136.777 260.253 136.627 260.253 136.551 260.253C136.4 260.253 136.25 260.253 136.174 260.328C136.024 260.403 135.948 260.554 135.797 260.705C135.722 260.856 135.647 261.157 135.571 261.459C135.496 261.76 135.496 262.212 135.496 262.664C135.496 263.192 135.496 263.569 135.571 263.87C135.647 264.172 135.722 264.473 135.797 264.624C135.873 264.775 136.024 264.925 136.174 265.001C136.325 265.076 136.4 265.076 136.551 265.076C136.702 265.076 136.853 265.076 136.928 265.001C137.079 264.925 137.154 264.775 137.305 264.624C137.456 264.473 137.456 264.172 137.531 263.87C137.531 263.569 137.606 263.117 137.606 262.664Z" fill="#C4C4C4"/>
<path d="M130.748 288.591L130.673 288.666C130.673 288.741 130.597 288.741 130.597 288.741C130.748 288.666 130.823 288.666 130.974 288.666C131.125 288.666 131.2 288.666 131.351 288.666C131.577 288.666 131.879 288.741 132.105 288.817C132.331 288.892 132.557 289.043 132.783 289.194C133.009 289.344 133.16 289.57 133.235 289.872C133.311 290.173 133.386 290.475 133.386 290.852C133.386 291.153 133.311 291.53 133.235 291.831C133.16 292.133 132.934 292.359 132.708 292.585C132.482 292.811 132.18 292.962 131.879 293.113C131.577 293.263 131.2 293.339 130.823 293.339C130.447 293.339 130.07 293.263 129.768 293.113C129.467 292.962 129.165 292.811 128.939 292.585C128.713 292.359 128.562 292.057 128.412 291.756C128.261 291.455 128.261 291.078 128.261 290.701C128.261 290.023 128.562 289.269 129.09 288.515L130.673 286.33C130.748 286.254 130.823 286.179 130.974 286.103C131.125 286.028 131.276 286.028 131.502 286.028H132.858L130.748 288.591ZM129.693 290.927C129.693 291.078 129.693 291.228 129.768 291.379C129.844 291.53 129.844 291.605 129.994 291.756C130.07 291.831 130.221 291.907 130.296 291.982C130.371 292.057 130.597 292.057 130.748 292.057C130.899 292.057 131.05 292.057 131.2 291.982C131.351 291.907 131.426 291.831 131.577 291.756C131.652 291.681 131.728 291.53 131.803 291.379C131.879 291.228 131.879 291.078 131.879 290.927C131.879 290.776 131.879 290.55 131.803 290.399C131.728 290.249 131.652 290.098 131.577 290.023C131.502 289.947 131.351 289.872 131.2 289.796C131.05 289.721 130.899 289.721 130.748 289.721C130.597 289.721 130.447 289.721 130.296 289.796C130.145 289.872 130.07 289.947 129.994 290.023C129.919 290.098 129.844 290.249 129.768 290.399C129.693 290.55 129.693 290.701 129.693 290.927Z" fill="#C4C4C4"/>
<path d="M139.189 289.57C139.189 290.173 139.114 290.776 138.963 291.228C138.812 291.681 138.661 292.057 138.435 292.359C138.209 292.66 137.908 292.886 137.606 293.037C137.305 293.188 136.928 293.263 136.551 293.263C136.174 293.263 135.797 293.188 135.496 293.037C135.195 292.886 134.893 292.66 134.667 292.359C134.441 292.057 134.215 291.681 134.139 291.228C134.064 290.776 133.913 290.249 133.913 289.57C133.913 288.892 133.989 288.364 134.139 287.912C134.29 287.46 134.441 287.083 134.667 286.782C134.893 286.48 135.195 286.254 135.496 286.103C135.797 285.953 136.174 285.877 136.551 285.877C136.928 285.877 137.305 285.953 137.606 286.103C137.908 286.254 138.209 286.48 138.435 286.782C138.661 287.083 138.888 287.46 138.963 287.912C139.114 288.44 139.189 288.967 139.189 289.57ZM137.606 289.57C137.606 289.043 137.606 288.666 137.531 288.364C137.456 288.063 137.38 287.762 137.305 287.611C137.229 287.46 137.079 287.309 136.928 287.234C136.777 287.159 136.627 287.159 136.551 287.159C136.4 287.159 136.25 287.159 136.174 287.234C136.024 287.309 135.948 287.46 135.797 287.611C135.722 287.762 135.647 288.063 135.571 288.364C135.496 288.666 135.496 289.118 135.496 289.57C135.496 290.098 135.496 290.475 135.571 290.776C135.647 291.078 135.722 291.379 135.797 291.53C135.873 291.681 136.024 291.831 136.174 291.907C136.325 291.982 136.4 291.982 136.551 291.982C136.702 291.982 136.853 291.982 136.928 291.907C137.079 291.831 137.154 291.681 137.305 291.53C137.456 291.379 137.456 291.078 137.531 290.776C137.531 290.475 137.606 290.098 137.606 289.57Z" fill="#C4C4C4"/>
<path d="M132.933 313.612C132.933 313.688 132.933 313.838 132.858 313.914C132.858 313.989 132.783 314.064 132.707 314.14C132.632 314.215 132.557 314.291 132.406 314.291C132.255 314.291 132.18 314.366 132.029 314.366H130.296L130.07 315.572C130.22 315.572 130.371 315.496 130.446 315.496C130.597 315.496 130.672 315.496 130.823 315.496C131.2 315.496 131.502 315.572 131.803 315.647C132.104 315.798 132.331 315.949 132.557 316.099C132.783 316.325 132.933 316.552 133.009 316.778C133.084 317.079 133.16 317.305 133.16 317.607C133.16 317.984 133.084 318.36 132.933 318.662C132.783 318.963 132.632 319.265 132.331 319.491C132.029 319.717 131.803 319.868 131.426 320.018C131.049 320.169 130.748 320.245 130.296 320.245C130.07 320.245 129.843 320.245 129.617 320.169C129.391 320.094 129.241 320.018 129.014 319.943C128.864 319.868 128.638 319.792 128.487 319.642C128.336 319.566 128.185 319.415 128.035 319.265L128.487 318.662C128.562 318.586 128.562 318.511 128.638 318.511C128.713 318.511 128.788 318.436 128.864 318.436C128.939 318.436 129.09 318.436 129.165 318.511C129.241 318.586 129.316 318.662 129.467 318.662C129.542 318.737 129.693 318.813 129.843 318.813C129.994 318.888 130.145 318.888 130.371 318.888C130.597 318.888 130.748 318.888 130.899 318.813C131.049 318.737 131.125 318.662 131.275 318.511C131.351 318.36 131.426 318.285 131.502 318.134C131.577 317.984 131.577 317.833 131.577 317.607C131.577 317.23 131.502 317.004 131.275 316.778C131.049 316.552 130.823 316.476 130.446 316.476C130.145 316.476 129.843 316.552 129.467 316.627L128.487 316.401L129.09 312.783H132.783V313.612H132.933Z" fill="#C4C4C4"/>
<path d="M139.189 316.552C139.189 317.155 139.114 317.757 138.963 318.21C138.812 318.662 138.661 319.039 138.435 319.34C138.209 319.642 137.908 319.868 137.606 320.018C137.305 320.169 136.928 320.245 136.551 320.245C136.174 320.245 135.797 320.169 135.496 320.018C135.195 319.868 134.893 319.642 134.667 319.34C134.441 319.039 134.215 318.662 134.139 318.21C134.064 317.757 133.913 317.23 133.913 316.552C133.913 315.873 133.989 315.346 134.139 314.893C134.29 314.441 134.441 314.064 134.667 313.763C134.893 313.462 135.195 313.235 135.496 313.085C135.797 312.934 136.174 312.859 136.551 312.859C136.928 312.859 137.305 312.934 137.606 313.085C137.908 313.235 138.209 313.462 138.435 313.763C138.661 314.064 138.888 314.441 138.963 314.893C139.114 315.421 139.189 315.949 139.189 316.552ZM137.606 316.552C137.606 316.024 137.606 315.647 137.531 315.346C137.456 315.044 137.38 314.743 137.305 314.592C137.229 314.441 137.079 314.291 136.928 314.215C136.777 314.14 136.627 314.14 136.551 314.14C136.4 314.14 136.25 314.14 136.174 314.215C136.024 314.291 135.948 314.441 135.797 314.592C135.722 314.743 135.647 315.044 135.571 315.346C135.496 315.647 135.496 316.099 135.496 316.552C135.496 317.079 135.496 317.456 135.571 317.757C135.647 318.059 135.722 318.36 135.797 318.511C135.873 318.662 136.024 318.813 136.174 318.888C136.325 318.963 136.4 318.963 136.551 318.963C136.702 318.963 136.853 318.963 136.928 318.888C137.079 318.813 137.154 318.662 137.305 318.511C137.456 318.36 137.456 318.059 137.531 317.757C137.531 317.456 137.606 317.079 137.606 316.552Z" fill="#C4C4C4"/>
<path d="M132.707 344.286H133.461V345.116C133.461 345.191 133.461 345.266 133.386 345.342C133.31 345.417 133.235 345.417 133.16 345.417H132.707V347.075H131.351V345.417H128.487C128.411 345.417 128.336 345.417 128.261 345.342C128.185 345.266 128.11 345.191 128.11 345.116L127.959 344.362L131.275 339.915H132.707V344.286ZM131.351 342.478C131.351 342.327 131.351 342.252 131.351 342.101C131.351 341.95 131.351 341.799 131.351 341.724L129.467 344.362H131.351V342.478Z" fill="#C4C4C4"/>
<path d="M139.189 343.533C139.189 344.136 139.114 344.739 138.963 345.191C138.812 345.643 138.661 346.02 138.435 346.321C138.209 346.623 137.908 346.849 137.606 347C137.305 347.15 136.928 347.226 136.551 347.226C136.174 347.226 135.797 347.15 135.496 347C135.195 346.849 134.893 346.623 134.667 346.321C134.441 346.02 134.215 345.643 134.139 345.191C134.064 344.739 133.913 344.211 133.913 343.533C133.913 342.855 133.989 342.327 134.139 341.875C134.29 341.423 134.441 341.046 134.667 340.744C134.893 340.443 135.195 340.217 135.496 340.066C135.797 339.915 136.174 339.84 136.551 339.84C136.928 339.84 137.305 339.915 137.606 340.066C137.908 340.217 138.209 340.443 138.435 340.744C138.661 341.046 138.888 341.423 138.963 341.875C139.114 342.327 139.189 342.855 139.189 343.533ZM137.606 343.533C137.606 343.005 137.606 342.628 137.531 342.327C137.456 342.025 137.38 341.724 137.305 341.573C137.229 341.423 137.079 341.272 136.928 341.196C136.777 341.121 136.627 341.121 136.551 341.121C136.4 341.121 136.25 341.121 136.174 341.196C136.024 341.272 135.948 341.423 135.797 341.573C135.722 341.724 135.647 342.025 135.571 342.327C135.496 342.628 135.496 343.081 135.496 343.533C135.496 344.06 135.496 344.437 135.571 344.739C135.647 345.04 135.722 345.342 135.797 345.492C135.873 345.643 136.024 345.794 136.174 345.869C136.325 345.945 136.4 345.945 136.551 345.945C136.702 345.945 136.853 345.945 136.928 345.869C137.079 345.794 137.154 345.643 137.305 345.492C137.456 345.342 137.456 345.04 137.531 344.739C137.531 344.437 137.606 343.985 137.606 343.533Z" fill="#C4C4C4"/>
<path d="M130.899 366.821C131.276 366.821 131.577 366.896 131.879 366.972C132.18 367.047 132.406 367.198 132.557 367.349C132.783 367.499 132.858 367.725 133.009 367.952C133.084 368.178 133.16 368.404 133.16 368.63C133.16 368.856 133.16 369.082 133.084 369.233C133.009 369.384 132.934 369.534 132.858 369.685C132.783 369.836 132.632 369.911 132.557 369.986C132.482 370.062 132.255 370.137 132.105 370.213C132.934 370.514 133.311 371.042 133.311 371.871C133.311 372.247 133.235 372.549 133.084 372.85C132.934 373.152 132.783 373.378 132.557 373.529C132.331 373.679 132.029 373.83 131.728 373.981C131.426 374.056 131.125 374.132 130.748 374.132C130.371 374.132 130.07 374.132 129.844 374.056C129.542 373.981 129.316 373.83 129.165 373.679C128.939 373.529 128.789 373.303 128.638 373.077C128.487 372.85 128.336 372.549 128.261 372.172L128.939 371.871C129.09 371.795 129.316 371.795 129.467 371.795C129.618 371.795 129.693 371.871 129.768 372.021C129.919 372.323 130.07 372.474 130.221 372.624C130.371 372.775 130.597 372.775 130.823 372.775C130.974 372.775 131.125 372.775 131.276 372.7C131.426 372.624 131.502 372.549 131.577 372.474C131.652 372.398 131.728 372.247 131.803 372.172C131.879 372.021 131.879 371.946 131.879 371.795C131.879 371.645 131.879 371.494 131.879 371.343C131.879 371.192 131.803 371.117 131.728 371.042C131.652 370.966 131.502 370.891 131.276 370.816C131.05 370.74 130.823 370.74 130.447 370.74V369.685C130.748 369.685 130.974 369.685 131.2 369.61C131.351 369.534 131.502 369.534 131.652 369.384C131.728 369.308 131.803 369.233 131.879 369.082C131.879 368.931 131.954 368.856 131.954 368.705C131.954 368.404 131.879 368.178 131.728 368.027C131.577 367.876 131.351 367.801 131.125 367.801C130.899 367.801 130.673 367.876 130.522 367.952C130.371 368.102 130.221 368.253 130.221 368.404C130.145 368.555 130.07 368.705 129.919 368.781C129.768 368.856 129.618 368.856 129.467 368.856L128.638 368.705C128.713 368.328 128.789 368.027 128.939 367.801C129.09 367.499 129.241 367.349 129.467 367.123C129.693 366.972 129.919 366.821 130.221 366.746C130.296 366.821 130.597 366.821 130.899 366.821Z" fill="#C4C4C4"/>
<path d="M139.189 370.439C139.189 371.042 139.114 371.645 138.963 372.097C138.812 372.549 138.661 372.926 138.435 373.227C138.209 373.529 137.908 373.755 137.606 373.906C137.305 374.056 136.928 374.132 136.551 374.132C136.174 374.132 135.797 374.056 135.496 373.906C135.195 373.755 134.893 373.529 134.667 373.227C134.441 372.926 134.215 372.549 134.139 372.097C134.064 371.645 133.913 371.117 133.913 370.439C133.913 369.76 133.989 369.233 134.139 368.781C134.29 368.328 134.441 367.952 134.667 367.65C134.893 367.349 135.195 367.123 135.496 366.972C135.797 366.821 136.174 366.746 136.551 366.746C136.928 366.746 137.305 366.821 137.606 366.972C137.908 367.123 138.209 367.349 138.435 367.65C138.661 367.952 138.888 368.328 138.963 368.781C139.114 369.308 139.189 369.836 139.189 370.439ZM137.606 370.439C137.606 369.911 137.606 369.534 137.531 369.233C137.456 368.931 137.38 368.63 137.305 368.479C137.229 368.328 137.079 368.178 136.928 368.102C136.777 368.027 136.627 368.027 136.551 368.027C136.4 368.027 136.25 368.027 136.174 368.102C136.024 368.178 135.948 368.328 135.797 368.479C135.722 368.63 135.647 368.931 135.571 369.233C135.496 369.534 135.496 369.986 135.496 370.439C135.496 370.966 135.496 371.343 135.571 371.645C135.647 371.946 135.722 372.247 135.797 372.398C135.873 372.549 136.024 372.7 136.174 372.775C136.325 372.85 136.4 372.85 136.551 372.85C136.702 372.85 136.853 372.85 136.928 372.775C137.079 372.7 137.154 372.549 137.305 372.398C137.456 372.247 137.456 371.946 137.531 371.645C137.531 371.343 137.606 370.966 137.606 370.439Z" fill="#C4C4C4"/>
<path d="M130.899 393.727C131.276 393.727 131.577 393.802 131.879 393.878C132.18 393.953 132.406 394.104 132.632 394.33C132.858 394.481 133.009 394.707 133.084 395.008C133.16 395.234 133.235 395.536 133.235 395.837C133.235 396.063 133.235 396.365 133.16 396.591C133.084 396.817 133.009 397.043 132.858 397.194C132.708 397.344 132.557 397.571 132.406 397.797C132.255 398.023 132.029 398.174 131.879 398.4L130.447 399.832C130.597 399.756 130.823 399.756 130.974 399.681C131.125 399.681 131.351 399.606 131.502 399.606H132.708C132.858 399.606 133.009 399.681 133.084 399.756C133.16 399.832 133.235 399.982 133.235 400.133V401.037H128.186V400.51C128.186 400.435 128.186 400.284 128.261 400.208C128.336 400.133 128.336 399.982 128.487 399.907L130.522 397.797C130.673 397.646 130.823 397.42 130.974 397.269C131.125 397.118 131.2 396.968 131.276 396.817C131.351 396.666 131.426 396.515 131.502 396.365C131.577 396.214 131.577 396.063 131.577 395.837C131.577 395.536 131.502 395.31 131.351 395.159C131.2 395.008 130.974 394.933 130.748 394.933C130.522 394.933 130.296 395.008 130.145 395.084C129.994 395.159 129.844 395.385 129.844 395.536C129.768 395.686 129.693 395.837 129.542 395.913C129.391 395.988 129.241 395.988 129.09 395.988L128.261 395.837C128.336 395.46 128.412 395.159 128.562 394.933C128.713 394.631 128.864 394.481 129.09 394.254C129.316 394.104 129.542 393.953 129.844 393.878C130.22 393.802 130.522 393.727 130.899 393.727Z" fill="#C4C4C4"/>
<path d="M139.189 397.42C139.189 398.023 139.114 398.626 138.963 399.078C138.812 399.53 138.661 399.907 138.435 400.208C138.209 400.51 137.908 400.736 137.606 400.887C137.305 401.037 136.928 401.113 136.551 401.113C136.174 401.113 135.797 401.037 135.496 400.887C135.195 400.736 134.893 400.51 134.667 400.208C134.441 399.907 134.215 399.53 134.139 399.078C134.064 398.626 133.913 398.098 133.913 397.42C133.913 396.742 133.989 396.214 134.139 395.762C134.29 395.31 134.441 394.933 134.667 394.631C134.893 394.33 135.195 394.104 135.496 393.953C135.797 393.802 136.174 393.727 136.551 393.727C136.928 393.727 137.305 393.802 137.606 393.953C137.908 394.104 138.209 394.33 138.435 394.631C138.661 394.933 138.888 395.31 138.963 395.762C139.114 396.214 139.189 396.817 139.189 397.42ZM137.606 397.42C137.606 396.892 137.606 396.515 137.531 396.214C137.456 395.913 137.38 395.611 137.305 395.46C137.229 395.31 137.079 395.159 136.928 395.084C136.777 395.008 136.627 395.008 136.551 395.008C136.4 395.008 136.25 395.008 136.174 395.084C136.024 395.159 135.948 395.31 135.797 395.46C135.722 395.611 135.647 395.913 135.571 396.214C135.496 396.515 135.496 396.968 135.496 397.42C135.496 397.947 135.496 398.324 135.571 398.626C135.647 398.927 135.722 399.229 135.797 399.379C135.873 399.53 136.024 399.681 136.174 399.756C136.325 399.832 136.4 399.832 136.551 399.832C136.702 399.832 136.853 399.832 136.928 399.756C137.079 399.681 137.154 399.53 137.305 399.379C137.456 399.229 137.456 398.927 137.531 398.626C137.531 398.324 137.606 397.947 137.606 397.42Z" fill="#C4C4C4"/>
<path d="M129.015 426.888H130.371V423.271C130.371 423.12 130.371 422.894 130.371 422.743L129.542 423.421C129.467 423.497 129.391 423.497 129.316 423.497C129.241 423.497 129.165 423.497 129.09 423.497C129.015 423.497 128.939 423.497 128.939 423.421C128.864 423.421 128.864 423.346 128.864 423.346L128.412 422.668L130.673 420.784H131.954V426.888H133.16V428.019H129.09V426.888H129.015Z" fill="#C4C4C4"/>
<path d="M139.189 424.401C139.189 425.004 139.114 425.607 138.963 426.059C138.812 426.511 138.661 426.888 138.435 427.19C138.209 427.491 137.908 427.717 137.606 427.868C137.305 428.019 136.928 428.094 136.551 428.094C136.174 428.094 135.797 428.019 135.496 427.868C135.195 427.717 134.893 427.491 134.667 427.19C134.441 426.888 134.215 426.511 134.139 426.059C134.064 425.607 133.913 425.079 133.913 424.401C133.913 423.723 133.989 423.195 134.139 422.743C134.29 422.291 134.441 421.914 134.667 421.613C134.893 421.311 135.195 421.085 135.496 420.934C135.797 420.784 136.174 420.708 136.551 420.708C136.928 420.708 137.305 420.784 137.606 420.934C137.908 421.085 138.209 421.311 138.435 421.613C138.661 421.914 138.888 422.291 138.963 422.743C139.114 423.195 139.189 423.723 139.189 424.401ZM137.606 424.401C137.606 423.874 137.606 423.497 137.531 423.195C137.456 422.894 137.38 422.592 137.305 422.442C137.229 422.291 137.079 422.14 136.928 422.065C136.777 421.989 136.627 421.989 136.551 421.989C136.4 421.989 136.25 421.989 136.174 422.065C136.024 422.14 135.948 422.291 135.797 422.442C135.722 422.592 135.647 422.894 135.571 423.195C135.496 423.497 135.496 423.949 135.496 424.401C135.496 424.929 135.496 425.306 135.571 425.607C135.647 425.908 135.722 426.21 135.797 426.361C135.873 426.511 136.024 426.662 136.174 426.737C136.325 426.813 136.4 426.813 136.551 426.813C136.702 426.813 136.853 426.813 136.928 426.737C137.079 426.662 137.154 426.511 137.305 426.361C137.456 426.21 137.456 425.908 137.531 425.607C137.531 425.306 137.606 424.853 137.606 424.401Z" fill="#C4C4C4"/>
<path d="M133.461 451.307C133.461 451.91 133.386 452.513 133.235 452.965C133.084 453.417 132.934 453.794 132.708 454.096C132.481 454.397 132.18 454.623 131.879 454.774C131.577 454.925 131.2 455 130.823 455C130.447 455 130.07 454.925 129.768 454.774C129.467 454.623 129.165 454.397 128.939 454.096C128.713 453.794 128.487 453.417 128.412 452.965C128.336 452.513 128.186 451.985 128.186 451.307C128.186 450.629 128.261 450.101 128.412 449.649C128.562 449.197 128.713 448.82 128.939 448.518C129.165 448.217 129.467 447.991 129.768 447.84C130.07 447.689 130.447 447.614 130.823 447.614C131.2 447.614 131.577 447.689 131.879 447.84C132.18 447.991 132.481 448.217 132.708 448.518C132.934 448.82 133.16 449.197 133.235 449.649C133.31 450.101 133.461 450.704 133.461 451.307ZM131.879 451.307C131.879 450.779 131.879 450.403 131.803 450.101C131.728 449.8 131.652 449.498 131.577 449.347C131.502 449.197 131.351 449.046 131.2 448.971C131.049 448.895 130.899 448.895 130.823 448.895C130.748 448.895 130.522 448.895 130.447 448.971C130.296 449.046 130.22 449.197 130.07 449.347C129.919 449.498 129.919 449.8 129.844 450.101C129.768 450.403 129.768 450.855 129.768 451.307C129.768 451.835 129.768 452.211 129.844 452.513C129.919 452.814 129.994 453.116 130.07 453.267C130.145 453.417 130.296 453.568 130.447 453.643C130.597 453.719 130.673 453.719 130.823 453.719C130.974 453.719 131.125 453.719 131.2 453.643C131.351 453.568 131.426 453.417 131.577 453.267C131.652 453.116 131.728 452.814 131.803 452.513C131.879 452.211 131.879 451.835 131.879 451.307Z" fill="#C4C4C4"/>
</svg>
