<svg width="500" height="500" viewBox="0 0 500 500" fill="none" xmlns="http://www.w3.org/2000/svg">
<path fill-rule="evenodd" clip-rule="evenodd" d="M0 0H500V500H0V0ZM14.0107 14H194.278V127.324H14.0107V14ZM168.928 132.324H14.0107V248.996H168.928V132.324ZM173.928 132.324H328.852V370.5H173.928V132.324ZM489.744 132.324H333.852V248.996H489.744V132.324ZM14.0107 253.996H168.928V370.667H14.0107V253.996ZM489.744 253.996H333.852V370.667H489.744V253.996ZM14.0107 375.667H168.928V491.496H14.0107V375.667ZM487.602 375.24H173.928V491.069H487.602V375.24ZM309.473 14H489.262V127.324H309.473V14ZM304.473 14H199.278V127.324H304.473V14Z" fill="#C4C4C4"/>
</svg>
