<svg width="500" height="500" viewBox="0 0 500 500" fill="none" xmlns="http://www.w3.org/2000/svg">
<path fill-rule="evenodd" clip-rule="evenodd" d="M500 0H0V500H500V0ZM129.011 14H14.0107V129H129.011V14ZM14.0107 134H129.011V249H14.0107V134ZM370 133.5H134V369H370V133.5ZM374.108 134H489.108V249H374.108V134ZM129.011 254H14.0107V369H129.011V254ZM374.809 254H489.809V369H374.809V254ZM129.011 374H14.0107V489H129.011V374ZM254.011 373.682H369.011V488.682H254.011V373.682ZM249.011 373.682H134.011V488.682H249.011V373.682ZM374.011 374H489.011V489H374.011V374ZM369.144 14H254.144V129H369.144V14ZM374.211 14H489.211V129H374.211V14ZM249.078 14H134.078V129H249.078V14Z" fill="#C4C4C4"/>
</svg>
