<svg width="500" height="501" viewBox="0 0 500 501" fill="none" xmlns="http://www.w3.org/2000/svg">
<path fill-rule="evenodd" clip-rule="evenodd" d="M500 0.75H0V500.75H500V0.75ZM151.475 113C138.908 113 128.255 122.333 126.852 134.822C120.301 193.098 120.444 233.342 126.895 291.603C128.282 304.124 138.947 313.5 151.544 313.5H361.086C373.841 313.5 384.582 303.889 385.797 291.193C391.337 233.296 391.457 193.153 385.836 135.243C384.606 122.573 373.875 113 361.145 113H151.475Z" fill="#C4C4C4"/>
<path fill-rule="evenodd" clip-rule="evenodd" d="M103.719 231.093C103.269 249.166 103.515 266.825 104.445 285.3C104.637 289.127 104.859 292.989 105.11 296.897C105.942 309.847 107.096 323.302 108.566 337.659C110.37 355.277 125.349 368.5 143.059 368.5H369.079C387.001 368.5 402.082 354.95 403.66 337.098C407.138 297.753 408.546 265.165 407.811 231.108C407.331 253.412 405.94 276.303 403.66 302.098C402.082 319.95 387.001 333.5 369.079 333.5H143.059C125.349 333.5 110.37 320.277 108.566 302.659C107.096 288.302 105.942 274.847 105.11 261.897C104.859 257.989 104.637 254.127 104.445 250.3C104.118 243.815 103.876 237.43 103.719 231.093Z" fill="#444444"/>
<path fill-rule="evenodd" clip-rule="evenodd" d="M75 242V273C75 280.18 80.8203 286 88 286H103C110.18 286 116 280.18 116 273V217.5C116 211.902 112.462 207.131 107.5 205.3V242H103.5V271.25H97C91.4772 271.25 87 266.773 87 261.25V242H75Z" fill="#444444"/>
<path fill-rule="evenodd" clip-rule="evenodd" d="M436 242V273C436 280.18 430.18 286 423 286H408C400.82 286 395 280.18 395 273V217.5C395 211.902 398.538 207.131 403.5 205.3V242H407.5V271.25H414C419.523 271.25 424 266.773 424 261.25V242H436Z" fill="#444444"/>
<path fill-rule="evenodd" clip-rule="evenodd" d="M142.967 95C125.296 95 110.333 108.167 108.51 125.743C106.615 144.007 105.263 160.811 104.445 176.972C104.291 180.003 104.156 183.011 104.04 186.002C103.201 207.653 103.343 228.404 104.445 250.3C104.637 254.127 104.859 257.989 105.11 261.897C105.942 274.847 107.096 288.302 108.566 302.659C110.37 320.277 125.349 333.5 143.059 333.5H369.079C387.001 333.5 402.082 319.95 403.66 302.098C409.377 237.425 409.499 191.007 403.709 126.318C402.114 108.501 387.047 95 369.158 95H142.967ZM151.475 113C138.908 113 128.255 122.333 126.852 134.822C120.301 193.098 120.444 233.342 126.895 291.603C128.282 304.124 138.947 313.5 151.544 313.5H361.086C373.841 313.5 384.582 303.889 385.797 291.193C391.337 233.296 391.457 193.153 385.836 135.243C384.606 122.573 373.875 113 361.145 113H151.475Z" fill="#363636"/>
<path fill-rule="evenodd" clip-rule="evenodd" d="M88 177.5C80.8203 177.5 75 183.32 75 190.5V246C75 253.18 80.8203 259 88 259H103C110.18 259 116 253.18 116 246V190.5C116 183.32 110.18 177.5 103 177.5H88ZM95 188.75C90.5817 188.75 87 192.332 87 196.75V239.25C87 243.668 90.5817 247.25 95 247.25H103.5V188.75H95Z" fill="#363636"/>
<path fill-rule="evenodd" clip-rule="evenodd" d="M424 177.5C431.18 177.5 437 183.32 437 190.5V246C437 253.18 431.18 259 424 259H409C401.82 259 396 253.18 396 246V190.5C396 183.32 401.82 177.5 409 177.5H424ZM417 188.75C421.418 188.75 425 192.332 425 196.75V239.25C425 243.668 421.418 247.25 417 247.25H408.5V188.75H417Z" fill="#363636"/>
</svg>
