<svg width="501" height="500" viewBox="0 0 501 500" fill="none" xmlns="http://www.w3.org/2000/svg">
<path fill-rule="evenodd" clip-rule="evenodd" d="M500.626 0H0.626221V500H500.626V0ZM304.433 56.3043C283.804 51.1368 255.41 47.4968 226.626 46.3593C218.147 46.0343 191.085 46.2293 182.606 46.6843C150.703 48.4068 123.934 52.4693 102.2 58.9368C74.9429 66.9968 60.5834 78.1443 62.9225 89.4218C63.2474 90.9493 63.3773 126.569 63.5073 253.579L63.7023 415.787L65.0991 418.614C66.1713 420.792 67.1134 422.027 68.9977 423.977C78.9387 434.019 102.589 442.697 134.589 448.027C176.466 455.047 227.308 455.697 271.621 449.814C315.414 443.997 346.244 432.199 352.872 418.679L354.139 416.079L354.301 372.042L354.464 328.004L357.907 327.159C379.186 321.862 399.621 305.449 416.579 280.034C427.885 263.037 435.097 245.162 437.826 227.384C438.443 223.517 438.573 221.242 438.573 214.547C438.606 206.292 438.443 204.374 437.079 197.647C435.325 188.807 432.076 180.422 427.56 173.142C414.663 152.374 392.604 140.674 360.896 137.847C357.712 137.554 354.918 137.262 354.691 137.197C354.366 137.067 354.301 132.257 354.366 112.692C354.431 99.2693 354.399 88.4143 354.269 88.5443C354.171 88.6743 353.911 89.4868 353.716 90.3643C352.027 97.0593 342.671 104.339 328.246 110.189C323.666 112.042 313.757 115.324 311.743 115.714C310.119 115.974 310.703 115.779 315.609 114.284C334.841 108.402 347.999 100.569 351.897 92.6393C352.969 90.4943 353.197 89.7143 353.294 87.6018C353.424 84.4493 352.807 82.2718 351.02 79.5093C345.302 70.6368 328.766 62.3818 304.433 56.3043ZM308.169 116.689C307.39 116.819 307.227 116.787 307.682 116.592C308.039 116.462 308.851 116.234 309.469 116.104C310.248 115.974 310.411 116.007 309.956 116.202C309.599 116.332 308.786 116.559 308.169 116.689ZM306.61 117.112C306.382 117.209 306.09 117.177 305.993 117.079C305.863 116.982 306.057 116.884 306.415 116.917C306.772 116.917 306.87 117.014 306.61 117.112ZM304.011 117.762C303.783 117.859 303.491 117.827 303.394 117.729C303.264 117.632 303.459 117.534 303.816 117.567C304.173 117.567 304.271 117.664 304.011 117.762ZM354.594 297.909C354.431 297.909 354.334 270.414 354.366 232.324L354.464 166.772L357.875 166.739C359.759 166.707 361.513 166.739 361.773 166.772C362.033 166.837 363.852 167.129 365.834 167.422C375.71 168.917 385.294 172.232 391.662 176.392C402.707 183.574 408.003 193.324 409.53 209.444C410.764 222.119 405.696 240.839 396.697 256.992C386.886 274.574 373.306 288.484 358.589 296.024C356.543 297.064 354.756 297.909 354.594 297.909Z" fill="#C4C4C4"/>
<ellipse cx="208.125" cy="87.25" rx="145.375" ry="40.75" fill="#333333"/>
</svg>
