<svg width="501" height="500" viewBox="0 0 501 500" fill="none" xmlns="http://www.w3.org/2000/svg">
<path fill-rule="evenodd" clip-rule="evenodd" d="M500.626 0H0.626221V500H500.626V0ZM327.501 116.546H336.86C405.404 116.546 461.169 172.308 461.169 240.854C461.169 309.4 405.404 365.165 336.86 365.165H327.501V385.37C327.501 407.299 309.724 425.076 287.794 425.076H79.7896C57.8601 425.076 40.0833 407.299 40.0833 385.37V85.8715C40.0833 79.825 44.9841 74.9241 51.0306 74.9241H316.553C322.6 74.9241 327.501 79.825 327.501 85.8715V116.546ZM327.501 332.322H336.86C387.294 332.322 428.326 291.292 428.326 240.857C428.326 190.421 387.295 149.389 336.86 149.389H327.501V332.322Z" fill="#C4C4C4"/>
</svg>
