<svg width="501" height="500" viewBox="0 0 501 500" fill="none" xmlns="http://www.w3.org/2000/svg">
<path fill-rule="evenodd" clip-rule="evenodd" d="M500.2 0H0.200012V500H500.2V0ZM249.47 85.0128C216.617 85.1515 190.183 89.9394 190.183 95.8112C190.183 95.8112 189.148 100.756 188.165 107.65C188.14 107.655 188.114 107.659 188.089 107.664L188.13 107.896C187.563 111.907 187.018 116.558 186.706 121.269C186.666 121.866 186.623 122.501 186.579 123.169L186.578 123.17C185.725 135.889 184.055 160.792 186.214 171.112L186.233 171.364L186.268 171.361C186.445 172.163 186.646 172.871 186.874 173.472L186.884 173.5C190.155 182.121 196.02 197.583 196.184 218.737C196.348 239.912 191.022 253.029 186.762 260.533L186.756 260.543L186.677 260.539L186.667 260.731C182.564 270.745 186.762 449.146 186.762 449.146C186.753 449.207 186.756 449.27 186.759 449.333V449.333C186.76 449.364 186.762 449.395 186.762 449.425C186.762 458.441 208.042 471.55 249.471 471.862V471.918C249.722 471.918 249.95 471.919 250.2 471.918C250.366 471.919 250.522 471.918 250.681 471.918L250.929 471.918V471.862C292.357 471.551 313.638 458.442 313.638 449.425C313.638 449.409 313.639 449.392 313.639 449.376L313.641 449.333C313.644 449.27 313.647 449.207 313.638 449.146C313.638 449.146 317.833 270.873 313.737 260.741L313.728 260.539L313.644 260.543L313.638 260.533C309.377 253.029 304.052 239.913 304.216 218.737C304.379 197.586 310.244 182.125 313.515 173.502L313.526 173.472C313.754 172.871 313.955 172.163 314.132 171.361L314.173 171.364L314.19 171.09C316.343 160.758 314.674 135.879 313.822 123.169C313.777 122.501 313.734 121.866 313.694 121.269C313.383 116.571 312.84 111.933 312.274 107.929L312.318 107.663C312.29 107.659 312.263 107.654 312.235 107.65C311.252 100.756 310.217 95.8112 310.217 95.8112C310.221 89.9392 283.785 85.1514 250.93 85.0128C250.755 85.0121 250.58 85.0119 250.407 85.012C250.332 85.012 250.257 85.012 250.181 85.0121L249.962 85.0124H249.961C249.798 85.0126 249.635 85.0128 249.471 85.0128H249.47Z" fill="#C4C4C4"/>
<path d="M250.231 59.0434C217.564 59.0434 191.056 63.7563 191.056 69.5622V96.1948C191.044 96.2842 191.056 96.3847 191.056 96.4746C191.056 102.281 217.562 106.993 250.231 106.993C282.676 106.993 308.989 102.337 309.348 96.5861C309.349 96.5463 309.348 96.5139 309.348 96.4742V69.5612C309.349 63.7553 282.899 59.0425 250.231 59.0425V59.0434Z" fill="#333333"/>
<path d="M250.208 35.0212C242.446 35.0212 236.148 36.1409 236.149 37.5204V54.5908C236.145 54.6121 236.149 54.636 236.149 54.6573C236.149 56.0367 242.446 57.1565 250.208 57.1565C257.917 57.1565 264.169 56.0503 264.254 54.6839C264.254 54.6749 264.254 54.666 264.254 54.6572V37.5201C264.254 36.1406 257.97 35.0209 250.208 35.0209V35.0212Z" fill="#1A1A1A"/>
<path d="M249.641 51.9506C232.298 52.1319 211.705 53.9453 198.489 64.9312L221.149 73.6596L249.417 77.9119C250.394 60.8256 250.022 60.9241 250.988 77.9119L279.256 73.6596L301.916 64.9312C288.7 53.945 268.107 52.1317 250.764 51.9506C250.395 51.947 250.008 51.9559 249.642 51.9506H249.641Z" fill="#1A1A1A"/>
<path d="M250.208 30.991C240.406 30.991 232.452 32.4052 232.453 34.1472V36.0103C232.448 36.0371 232.453 36.0672 232.453 36.0943C232.453 37.8364 240.406 39.2505 250.208 39.2505C259.943 39.2505 267.838 37.8535 267.946 36.1279C267.947 36.1171 267.946 47.7212 267.946 36.0942V34.1472C267.947 32.4051 260.01 30.991 250.208 30.991V30.991Z" fill="#1A1A1A"/>
<path d="M250.202 28.0819C247.62 28.0819 245.524 28.4544 245.524 28.9134V34.5926C245.523 34.5997 245.524 34.607 245.524 34.6146C245.524 35.0736 247.62 35.4461 250.202 35.4461C252.767 35.4461 254.847 35.0781 254.875 34.6235C254.875 34.6199 254.875 34.6182 254.875 34.6145V28.9131C254.875 28.4542 252.784 28.0817 250.202 28.0817V28.0819Z" fill="#1A1A1A"/>
</svg>
