<svg width="500" height="501" viewBox="0 0 500 501" fill="none" xmlns="http://www.w3.org/2000/svg">
<path fill-rule="evenodd" clip-rule="evenodd" d="M0 0.75H500V500.75H0V0.75ZM19.4472 91.7936C19.4472 89.0322 21.6858 86.7936 24.4472 86.7936H86.0344C88.7958 86.7936 91.0344 89.0322 91.0344 91.7936V185.794C91.0344 188.555 88.7958 190.794 86.0344 190.794H24.4472C21.6858 190.794 19.4472 188.555 19.4472 185.794V91.7936ZM24.4472 198.75C21.6858 198.75 19.4472 200.989 19.4472 203.75V297.75C19.4472 300.511 21.6858 302.75 24.4472 302.75H86.0344C88.7958 302.75 91.0344 300.511 91.0344 297.75V203.75C91.0344 200.989 88.7958 198.75 86.0344 198.75H24.4472ZM19.4472 315.706C19.4472 312.945 21.6858 310.706 24.4472 310.706H86.0344C88.7958 310.706 91.0344 312.945 91.0344 315.706V409.706C91.0344 412.468 88.7958 414.706 86.0344 414.706H24.4472C21.6858 414.706 19.4472 412.468 19.4472 409.706V315.706ZM102.351 86.7936C99.5895 86.7936 97.3509 89.0322 97.3509 91.7936V185.794C97.3509 188.555 99.5895 190.794 102.351 190.794H163.938C166.699 190.794 168.938 188.555 168.938 185.794V91.7936C168.938 89.0322 166.699 86.7936 163.938 86.7936H102.351ZM97.3509 203.75C97.3509 200.989 99.5894 198.75 102.351 198.75H163.938C166.699 198.75 168.938 200.989 168.938 203.75V297.75C168.938 300.511 166.699 302.75 163.938 302.75H102.351C99.5894 302.75 97.3509 300.511 97.3509 297.75V203.75ZM102.351 310.706C99.5895 310.706 97.3509 312.945 97.3509 315.706V409.706C97.3509 412.468 99.5895 414.706 102.351 414.706H163.938C166.699 414.706 168.938 412.468 168.938 409.706V315.706C168.938 312.945 166.699 310.706 163.938 310.706H102.351ZM175.255 91.7936C175.255 89.0322 177.493 86.7936 180.255 86.7936H241.842C244.603 86.7936 246.842 89.0322 246.842 91.7936V185.794C246.842 188.555 244.603 190.794 241.842 190.794H180.255C177.493 190.794 175.255 188.555 175.255 185.794V91.7936ZM180.255 198.75C177.493 198.75 175.255 200.989 175.255 203.75V297.75C175.255 300.511 177.493 302.75 180.255 302.75H241.842C244.603 302.75 246.842 300.511 246.842 297.75V203.75C246.842 200.989 244.603 198.75 241.842 198.75H180.255ZM175.255 315.706C175.255 312.945 177.493 310.706 180.255 310.706H241.842C244.603 310.706 246.842 312.945 246.842 315.706V409.706C246.842 412.468 244.603 414.706 241.842 414.706H180.255C177.493 414.706 175.255 412.468 175.255 409.706V315.706ZM258.158 86.7936C255.397 86.7936 253.158 89.0322 253.158 91.7936V185.794C253.158 188.555 255.397 190.794 258.158 190.794H319.745C322.507 190.794 324.745 188.555 324.745 185.794V91.7936C324.745 89.0322 322.507 86.7936 319.745 86.7936H258.158ZM253.158 203.75C253.158 200.989 255.397 198.75 258.158 198.75H319.745C322.507 198.75 324.745 200.989 324.745 203.75V297.75C324.745 300.511 322.507 302.75 319.745 302.75H258.158C255.397 302.75 253.158 300.511 253.158 297.75V203.75ZM258.158 310.706C255.397 310.706 253.158 312.945 253.158 315.706V409.706C253.158 412.468 255.397 414.706 258.158 414.706H319.745C322.507 414.706 324.745 412.468 324.745 409.706V315.706C324.745 312.945 322.507 310.706 319.745 310.706H258.158ZM331.062 91.7936C331.062 89.0322 333.301 86.7936 336.062 86.7936H397.649C400.411 86.7936 402.649 89.0322 402.649 91.7936V185.794C402.649 188.555 400.411 190.794 397.649 190.794H336.062C333.301 190.794 331.062 188.555 331.062 185.794V91.7936ZM336.062 198.75C333.3 198.75 331.062 200.989 331.062 203.75V297.75C331.062 300.511 333.3 302.75 336.062 302.75H397.649C400.41 302.75 402.649 300.511 402.649 297.75V203.75C402.649 200.989 400.41 198.75 397.649 198.75H336.062ZM331.062 315.706C331.062 312.945 333.301 310.706 336.062 310.706H397.649C400.411 310.706 402.649 312.945 402.649 315.706V409.706C402.649 412.468 400.411 414.706 397.649 414.706H336.062C333.301 414.706 331.062 412.468 331.062 409.706V315.706ZM413.966 86.7936C411.204 86.7936 408.966 89.0322 408.966 91.7936V185.794C408.966 188.555 411.204 190.794 413.966 190.794H475.553C478.314 190.794 480.553 188.555 480.553 185.794V91.7936C480.553 89.0322 478.314 86.7936 475.553 86.7936H413.966ZM408.966 203.75C408.966 200.989 411.204 198.75 413.966 198.75H475.553C478.314 198.75 480.553 200.989 480.553 203.75V297.75C480.553 300.511 478.314 302.75 475.553 302.75H413.966C411.204 302.75 408.966 300.511 408.966 297.75V203.75ZM413.966 310.706C411.204 310.706 408.966 312.945 408.966 315.706V409.706C408.966 412.468 411.204 414.706 413.966 414.706H475.553C478.314 414.706 480.553 412.468 480.553 409.706V315.706C480.553 312.945 478.314 310.706 475.553 310.706H413.966Z" fill="#C4C4C4"/>
</svg>
