<svg width="500" height="501" viewBox="0 0 500 501" fill="none" xmlns="http://www.w3.org/2000/svg">
<path fill-rule="evenodd" clip-rule="evenodd" d="M500 0.40876H0V500.409H500V0.40876ZM85.0889 161C74.0432 161 65.0889 169.954 65.0889 181V300.409C65.0889 311.454 74.0432 320.409 85.0889 320.409H410.791C421.837 320.409 430.791 311.454 430.791 300.409V181C430.791 169.954 421.837 161 410.791 161H85.0889Z" fill="#C4C4C4"/>
<path fill-rule="evenodd" clip-rule="evenodd" d="M65.8019 175.688C65.3371 177.38 65.0889 179.161 65.0889 181V196.553C62.0077 195.034 58.7008 194.21 55.2593 194.21C38.5942 194.21 25.0845 213.539 25.0845 237.383C25.0845 261.227 38.5942 280.557 55.2593 280.557C58.7008 280.557 62.0077 279.732 65.0889 278.214V297.48C62.8372 297.999 60.5272 298.269 58.1732 298.269C34.3293 298.269 15 270.613 15 236.498C15 202.383 34.3293 174.727 58.1732 174.727C60.7763 174.727 63.3257 175.056 65.8019 175.688Z" fill="#333333"/>
<path fill-rule="evenodd" clip-rule="evenodd" d="M430.791 296.302C434.258 297.586 437.893 298.269 441.64 298.269C465.484 298.269 484.813 270.613 484.813 236.498C484.813 202.383 465.484 174.727 441.64 174.727C437.738 174.727 433.957 175.468 430.361 176.856C430.643 178.193 430.791 179.579 430.791 181V198.952C434.918 195.921 439.596 194.21 444.554 194.21C461.219 194.21 474.729 213.539 474.729 237.383C474.729 261.227 461.219 280.557 444.554 280.557C439.596 280.557 434.918 278.846 430.791 275.815V296.302Z" fill="#333333"/>
</svg>
