<svg width="501" height="501" viewBox="0 0 501 501" fill="none" xmlns="http://www.w3.org/2000/svg">
<path fill-rule="evenodd" clip-rule="evenodd" d="M500.555 0.599976H0.554688V500.6H500.555V0.599976ZM26.809 5.87714C16.3209 5.87714 5.83281 16.3653 5.83281 26.8534V474.347C5.83281 484.835 16.3209 495.323 26.809 495.323H474.3C484.788 495.323 495.277 484.835 495.277 474.347V26.8534C495.277 16.3653 484.788 5.87714 474.3 5.87714H26.809Z" fill="#C4C4C4"/>
<path d="M397.387 5.87714C397.387 5.87714 407.171 26.8716 399.775 40.4963C392.38 54.1204 398.221 38.8686 383.122 40.1229C368.023 41.3771 366.684 69.1869 378.623 70.2315C390.563 71.2761 392.633 60.4251 399.188 72.4129C405.743 84.4008 387.435 123.419 392.887 138.973C398.34 154.526 396.897 135.559 411.273 137.355C425.649 139.15 424.789 165.339 411.854 167.182C398.919 169.025 398.294 159.422 391.974 171.27C385.653 183.118 383.926 220.001 390.782 234.946C397.639 249.892 397.519 231.399 413.039 231.761C428.558 232.122 426.534 267.454 412.938 269.412C399.343 271.369 401.366 255.562 395.902 267.201C390.439 278.839 409.2 315.38 401.907 329.602C394.614 343.824 397.598 328.755 383.04 330.46C368.482 332.165 370.33 366.806 382.016 367.238C393.702 367.669 398.192 353.566 404.038 365.247C409.883 376.928 405.542 413.398 399.216 428.739C392.89 444.079 396.339 431.708 381.041 432.674C365.742 433.639 367.071 463.214 379.735 464.936C392.399 466.657 392.569 446.965 399.965 460.557C407.362 474.143 397.385 495.315 397.385 495.315" stroke="#C4C4C4" stroke-width="4"/>
<path d="M299.498 5.87714C299.498 5.87714 286.938 22.742 292.823 38.2435C298.707 53.7456 298.123 36.994 313.215 38.257C328.307 39.5199 328.128 71.4861 314.592 73.4432C301.056 75.4001 299.367 57.6075 293.59 69.2749C287.813 80.9426 287.495 123.146 293.843 138.476C300.191 153.805 302.747 132.805 317.488 134.393C332.229 135.981 329.603 169.915 317.785 170.736C305.967 171.557 302.933 159.308 297.156 170.975C291.379 182.643 312.842 218.249 305.906 233.105C298.97 247.962 296.178 234.712 281.843 236.525C267.508 238.338 274.029 266.948 285.736 267.464C297.442 267.979 295.848 252.746 302.275 264.652C308.703 276.559 287.599 315.334 293.151 330.884C298.702 346.435 300.719 327.895 314.696 329.815C328.673 331.736 325.465 363.888 313.246 365.28C301.029 366.671 300.583 350.096 293.206 363.422C285.828 376.747 286.601 413.568 293.149 428.777C299.697 443.985 301.102 427.167 316.612 427.579C332.121 427.99 328.036 459.676 316.343 460.137C304.65 460.599 300.647 448.399 293.756 460.682C286.861 472.96 299.496 495.321 299.496 495.321" stroke="#C4C4C4" stroke-width="4"/>
<path d="M201.609 5.87714C201.609 5.87714 189.798 24.6523 195.53 40.1838C201.262 55.7153 203.462 40.2943 218.911 40.9237C234.361 41.553 231.119 72.723 219.396 73.2928C207.673 73.8627 202.075 58.9087 194.948 71.513C187.821 84.1176 215.494 121.597 208.266 135.984C201.038 150.372 198.553 137.42 183.016 137.669C167.478 137.917 174.341 170.578 186.197 171.475C198.052 172.371 200.757 156.415 208.15 169.895C215.542 183.374 208.925 219.032 203.091 234.545C197.257 250.058 202.256 232.445 187.905 234.251C173.554 236.057 174.455 263.341 187.154 265.082C199.853 266.823 201.01 254.166 208.292 267.101C215.573 280.037 191.937 319.434 198.606 334.552C205.275 349.671 201.724 331.998 215.93 333.858C230.135 335.718 233.392 363.672 220.434 365.523C207.475 367.374 206.089 354.227 199.825 366.048C193.561 377.869 210.764 417.022 204.604 432.438C198.444 447.853 198.557 426.095 183.997 427.799C169.437 429.502 174.685 460.841 187.904 462.762C201.124 464.684 202.376 451.735 208.198 463.41C214.022 475.08 201.612 495.315 201.612 495.315" stroke="#C4C4C4" stroke-width="4"/>
<path d="M103.72 5.87714C103.72 5.87714 89.881 23.8272 97.0351 38.3658C104.189 52.9045 104.161 38.781 118.477 40.6012C132.794 42.4214 135.287 70.1393 122.528 71.9089C109.769 73.6791 105.993 56.7228 99.7615 68.5287C93.5306 80.3341 110.875 121.443 105.256 136.987C99.6376 152.533 103.961 134.913 89.9785 136.833C75.9959 138.752 73.9967 169.976 86.178 171.329C98.3589 172.683 98.8993 157.045 105.192 168.879C111.485 180.713 92.8337 217.794 100.199 231.734C107.564 245.675 103.018 233.985 117.762 235.57C132.507 237.155 130.551 265.308 117.44 267.205C104.329 269.102 104.392 257.065 98.0044 268.948C91.6171 280.831 95.0326 317.707 102.25 332.119C109.468 346.531 107.324 331.806 122.54 332.904C137.756 334.002 134.968 360.799 121.632 362.739C108.295 364.68 103.866 353.831 97.2539 365.861C90.6413 377.89 116.152 415.176 110.332 430.692C104.511 446.207 99.9996 425.836 86.1456 427.776C72.2915 429.717 74.222 463.327 87.7292 465.283C101.236 467.238 102.909 453.516 108.615 465.172C114.321 476.827 103.721 495.322 103.721 495.322" stroke="#C4C4C4" stroke-width="4"/>
<path d="M5.83252 103.766C5.83252 103.766 24.1699 117.698 38.5232 110.455C52.8772 103.212 36.7252 104.909 38.2215 90.051C39.7179 75.1932 67.5805 75.9774 69.5383 89.5499C71.4959 103.122 60.1102 98.6648 72.5137 105.657C84.9176 112.648 120.789 91.5245 136.339 97.0776C151.89 102.631 136.435 107.159 137.279 122.521C138.123 137.883 165.136 131.377 166.545 119.139C167.955 106.901 154.369 108.602 167.042 101.437C179.715 94.2724 217.949 111.434 233.4 105.373C248.852 99.3118 231.263 104.301 232.088 88.9306C232.913 73.5592 268.124 74.4835 269.307 86.5189C270.489 98.5544 251.07 101.578 264.512 108.968C277.954 116.358 318.88 94.8346 332.872 102.19C346.863 109.546 330.666 107.35 331.638 122.646C332.61 137.941 361.71 135.335 363.554 122.398C365.398 109.461 350.134 104.818 363.419 97.4472C376.705 90.0762 413.373 112.709 428.325 105.858C443.276 99.0075 425.894 101.387 427.518 86.6976C429.141 72.0077 458.749 73.4973 460.425 86.0808C462.101 98.6637 453.372 101.183 465.013 106.745C476.655 112.304 495.275 103.767 495.275 103.767" stroke="#C4C4C4" stroke-width="4"/>
<path d="M5.83203 201.655C5.83203 201.655 25.1902 213.089 40.6713 207.124C56.1524 201.158 35.6795 202.512 37.0963 187.565C38.5131 172.618 72.2104 171.644 72.811 183.377C73.4112 195.109 58.685 200.89 71.8375 208.236C84.99 215.581 124.604 190.585 138.949 197.832C153.293 205.079 137.994 204.368 138.087 219.919C138.181 235.47 165.228 231.944 166.838 219.462C168.448 206.98 154.621 203.366 166.396 197.208C178.171 191.05 216.326 192.501 231.798 198.5C247.269 204.499 230.579 202.098 232.511 216.015C234.442 229.932 267.493 230.152 269.353 217.168C271.212 204.184 253.52 205.772 265.282 199.65C277.043 193.528 319.044 192.774 334.58 198.472C350.117 204.17 331.95 205.026 332.008 220.578C332.066 236.131 365.406 231.638 367.341 218.345C369.275 205.051 349.53 202.983 363.067 195.588C376.605 188.192 416.536 214.542 431.6 207.809C446.665 201.076 428.529 198.546 428.829 183.016C429.13 167.486 461.915 176.209 462.539 187.948C463.162 199.688 448.289 196.511 461.009 203.701C473.728 210.889 495.27 201.652 495.27 201.652" stroke="#C4C4C4" stroke-width="4"/>
<path d="M5.83203 299.545C5.83203 299.545 26.4635 310.015 40.9496 302.833C55.4351 295.651 37.7081 299.608 39.6155 285.571C41.523 271.534 71.0847 272.399 72.8537 285.155C74.6227 297.912 57.2516 293.889 70.1928 301.172C83.1344 308.456 118.641 307.774 134.187 302.164C149.733 296.553 137.119 301.217 137.278 285.669C137.438 270.122 170.613 270.64 171.482 282.482C172.351 294.323 157.566 294.863 169.348 301.038C181.13 307.214 222.795 287.099 236.656 294.477C250.517 301.854 233.186 299.076 235.017 313.366C236.847 327.657 268.592 327.116 269.419 315.294C270.246 303.474 256.145 304.201 269.023 296.941C281.901 289.681 315.997 312.035 331.5 306.156C347.004 300.277 327.944 298.376 329.891 284.571C331.837 270.767 361.061 270.579 362.225 282.601C363.39 294.623 350.812 298.74 363.132 305.663C375.452 312.587 417.086 308.83 432.082 302.024C447.079 295.218 428.404 301.021 429.464 285.78C430.524 270.538 458.664 270.97 460.038 283.172C461.412 295.373 447.297 298.051 460.778 305.444C474.259 312.834 495.277 299.542 495.277 299.542" stroke="#C4C4C4" stroke-width="4"/>
<path d="M5.83203 397.434C5.83203 397.434 26.2551 384.991 40.779 392.153C55.3022 399.315 37.9563 397.649 39.8881 411.562C41.8199 425.476 68.0101 427.629 69.2219 415.57C70.4336 403.513 59.8966 402.3 73.1735 394.929C86.45 387.56 123.133 408.214 138.684 402.681C154.235 397.148 132.109 396.403 133.957 382.16C135.804 367.917 168.811 366.652 170.065 378.745C171.318 390.837 155.696 391.516 169.17 398.909C182.645 406.301 221.005 388.934 236.548 394.573C252.091 400.212 231.08 397.039 232.041 412.34C233.003 427.64 267.135 423.061 267.795 411.308C268.455 399.556 252.571 402.911 265.558 395.612C278.545 388.313 318.323 385.61 333.846 391.39C349.37 397.171 333.008 400.579 333.214 416.122C333.421 431.665 364.162 423.494 365.564 411.266C366.966 399.037 353.464 402.528 365.551 395.842C377.638 389.156 412.718 387.217 427.54 394.181C442.363 401.145 430.234 401.289 432.159 415.24C434.084 429.191 459.977 424.815 460.1 413.173C460.223 401.532 453.177 398.594 465.023 392.276C476.875 385.962 495.278 397.436 495.278 397.436" stroke="#C4C4C4" stroke-width="4"/>
<path d="M5.83179 26.8534C5.83179 16.3653 16.3199 5.87714 26.8079 5.87714H474.299C484.787 5.87714 495.276 16.3653 495.276 26.8534V474.347C495.276 484.835 484.787 495.323 474.299 495.323H26.8079C16.3199 495.323 5.83179 484.835 5.83179 474.347V26.8534" stroke="#C4C4C4" stroke-width="4"/>
</svg>
