<svg width="405" height="405" viewBox="0 0 405 405" fill="none" xmlns="http://www.w3.org/2000/svg">
<path fill-rule="evenodd" clip-rule="evenodd" d="M404.884 0.279625H0.626221V404.538H404.884V0.279625ZM264.347 100.818H141.164V224H264.347V100.818Z" fill="#C4C4C4"/>
<path fill-rule="evenodd" clip-rule="evenodd" d="M239.477 34.6547C239.477 34.6547 228.169 45.03 202.755 45.03C177.458 45.03 166.034 34.6547 166.034 34.6547L101.45 57.154L100.984 57.6203L29.7554 132.579L82.5647 191.101L104.831 172.682V370.163H202.755H300.68V172.682L322.946 191.101L375.755 132.579L304.527 57.6203L304.061 57.154L239.477 34.6547ZM264.347 100.818H141.164V224H264.347V100.818Z" fill="white"/>
<rect x="141.664" y="101.318" width="122.182" height="122.182" stroke="#465A0B"/>
</svg>
