<svg width="501" height="501" viewBox="0 0 501 501" fill="none" xmlns="http://www.w3.org/2000/svg">
<path fill-rule="evenodd" clip-rule="evenodd" d="M500.487 0.603149H0.486877V500.603H500.487V0.603149ZM122.502 41.6947L111.606 13.4181L116.952 13.5765L128.888 42.0191L133.167 39.9956L124.77 14.7491L130.617 15.2583L138.077 41.2833L142.89 40.3507L138.435 16.4307L144.532 17.1154L149.488 41.386L155.117 42.4597L151.882 18.6766L157.663 17.7057L160.213 42.4431L166.027 42.2121L164.73 18.3523L171.361 20.1278L170.889 42.39L174.781 42.6062L176.362 19.3268L180.317 19.5868L178.495 42.8758L183.247 43.3357L185.516 20.5392L189.588 20.7019L187.078 43.5083L191.487 44.4453L195.523 21.8103L200.572 22.1194L196.551 43.6888L201.889 43.662L205.393 21.372L210.864 21.618L206.908 44.6672L211.878 44.5622L214.538 22.3984L220.462 21.8852L216.756 45.1099L222.603 45.619L223.494 21.8574L228.497 22.4927L228.167 45.2126L233.905 46.0041L231.954 23.8386L236.473 24.4933L239.252 46.1631L244.815 45.7568L240.867 25.0602L246.79 24.5469L249.584 46.5864L254.179 46.2185L251.14 26.8762L256.594 26.7524L258.088 46.8047L261.996 47.3909L259.784 27.5521L264.629 27.3596L266.357 47.2174L270.843 47.1318L268.43 28.2284L273.526 28.2114L275.596 47.5926L280.942 47.7508L277.686 28.9736L281.328 29.0144L284.601 48.1619L289.321 47.8818L285.972 29.7569L290.474 30.0415L293.808 47.7968L298.873 48.4759L294.618 30.4336L299.15 30.022L302.946 48.6391L307.394 49.0648L303.49 30.7305L307.734 30.6546L311.864 48.6095L317.116 48.5483L311.853 30.4079L316.915 30.4035L322.19 48.8059L326.821 48.753L321.415 31.2733L325.869 31.0963L331.21 49.0379L335.575 48.7989L330.258 31.3813L334.712 31.2044L340.13 48.9461L343.998 49.12L339 31.1652L343.443 30.7267L348.606 48.544L352.829 48.9661L347.742 30.9492L351.422 30.7374L356.84 48.479L360.078 47.9573L354.695 31.0005L360.342 30.6452L365.048 51.692L323.469 51.1918C338.174 51.5443 352.189 51.75 364.875 51.75C374.745 91.6539 373.345 143.483 371.804 200.521C370.619 244.374 369.352 291.306 373.059 338.266C380.074 411.798 380.892 449.637 380.987 457.459L381.214 457.508L391.725 485.754L387.158 486.651L379.185 466.663L374.678 465.941L382.21 484.895L376.91 485.145L363.819 459H360.391L358.963 459.825L369.092 484.564L363.271 484.498L354.047 459H353.673L349.319 460.211L355.452 483.916L349.371 483.694L342.716 459.673L337.07 459.023L341.987 482.685L336.338 484.103L332.031 459.43L326.295 460.106L329.3 483.993L322.612 482.714L321.473 460.299L317.607 460.379L317.724 483.902L313.793 483.943L313.915 460.392L309.179 460.293L308.58 483.383L304.54 483.53L305.378 460.412L300.948 459.807L298.59 482.87L293.573 482.945L295.995 460.955L290.717 461.39L288.858 484.065L283.428 484.235L285.679 460.762L280.769 461.247L279.737 483.732L273.915 484.7L275.905 461.07L270.084 461.005L270.917 484.96L265.922 484.703L264.61 461.838L258.876 461.481L262.406 483.615L257.888 483.302L253.577 461.731L248.102 462.564L253.502 483.068L247.679 484.036L243.324 462.094L238.805 462.814L243.208 482.027L237.821 482.568L234.896 462.524L230.987 462.233L234.607 482.008L229.827 482.571L226.686 462.74L222.255 463.169L226.005 481.988L220.966 482.395L217.52 463.07L212.219 463.319L216.795 481.947L213.19 482.184L208.57 463.185L203.921 463.827L208.543 481.792L204.068 481.85L199.49 464.256L194.429 463.96L199.941 481.773L195.487 482.533L190.388 464.108L185.958 464.019L191.144 482.153L186.951 482.553L181.569 464.819L176.378 465.282L182.894 483.116L177.886 483.508L171.34 465.411L166.763 465.818L173.372 482.977L168.978 483.495L162.4 465.867L158.099 466.441L164.616 483.544L160.223 484.062L153.583 466.641L149.743 466.761L155.982 484.429L151.619 485.209L145.226 467.692L141.018 467.591L147.351 485.315L143.725 485.808L137.086 468.387L133.921 469.159L140.469 485.793L134.908 486.582L128.733 465.784L128.828 465.777C129.432 456.949 147.577 187.562 122.332 41.6836C122.348 41.6847 122.406 41.6884 122.502 41.6947ZM122.332 41.6836C122.332 41.6826 122.331 41.6815 122.331 41.6805L122.327 41.6833C122.327 41.6833 122.328 41.6834 122.332 41.6836Z" fill="#C4C4C4"/>
</svg>
